<svg width="627" height="733" viewBox="0 0 627 733" fill="none" xmlns="http://www.w3.org/2000/svg">
<path d="M680.698 263.54C680.698 263.54 662.877 200.245 615.559 133.877C567.626 68.1233 525.225 40.47 525.225 40.47C525.225 40.47 482.208 23.878 468.689 14.6602C455.169 5.44242 325.506 -7.46248 305.841 5.44242C286.177 18.3473 208.747 46.0007 200.759 50.9168C192.77 55.833 122.1 90.8605 103.665 127.732C85.2291 165.217 680.698 263.54 680.698 263.54Z" fill="#CCB494"/>
<path d="M176.792 86.5591C279.417 25.1072 402.321 -6.23322 488.968 65.6655C543.66 110.525 603.883 141.251 641.369 203.932C648.743 216.223 659.19 238.96 669.022 249.407C732.317 321.305 713.267 436.835 681.927 521.638C665.335 565.884 632.765 605.213 595.894 629.179C571.314 644.542 579.917 661.134 554.107 676.497C487.124 716.441 383.885 749.01 319.975 722.586C248.077 693.089 107.352 659.905 48.3579 561.582C34.224 538.845 23.7772 514.879 15.174 490.298C9.02878 471.862 21.3192 461.416 15.174 443.595C-23.5407 328.68 15.7884 221.139 88.3017 142.48C109.81 118.514 148.524 103.766 176.792 86.5591Z" fill="#F7E7B5"/>
<path d="M367.908 434.376C356.232 427.002 340.869 428.231 330.422 436.835C318.132 447.281 302.154 462.644 301.54 473.706C299.696 492.141 275.73 525.325 268.97 561.582C262.21 597.224 200.759 561.582 213.049 549.906C225.339 538.845 280.646 476.778 267.741 471.862C254.836 466.946 219.194 489.683 207.518 474.935C195.842 460.186 213.663 382.757 228.412 373.539C243.775 364.321 304.612 392.589 313.216 385.829C321.819 379.07 356.846 353.26 344.556 304.098C332.266 254.937 442.879 229.127 459.471 258.624C475.449 288.735 363.606 362.478 370.366 394.433C377.126 426.388 463.158 414.712 475.449 414.097C487.124 412.868 546.118 460.801 442.879 541.917C339.025 623.034 410.31 481.08 390.645 454.656C382.656 445.438 374.667 439.293 367.908 434.376Z" fill="#D1922C"/>
</svg>
