<svg width="480" height="495" viewBox="0 0 480 495" fill="none" xmlns="http://www.w3.org/2000/svg">
<path d="M459.543 177.918C459.543 177.918 447.512 135.186 415.567 90.381C383.208 45.9904 354.582 27.3215 354.582 27.3215C354.582 27.3215 325.541 16.1202 316.414 9.89718C307.287 3.67421 219.751 -5.03796 206.475 3.67421C193.2 12.3864 140.926 31.0553 135.533 34.3742C130.14 37.6931 82.4306 61.3405 69.9846 86.2324C57.5387 111.539 459.543 177.918 459.543 177.918Z" fill="#CCB494"/>
<path d="M119.353 58.4366C188.636 16.9501 271.609 -4.20804 330.105 44.3312C367.028 74.6163 407.685 95.3596 432.991 137.676C437.97 145.973 445.023 161.323 451.66 168.376C494.391 216.915 481.531 294.91 460.373 352.161C449.171 382.031 427.183 408.583 402.291 424.762C385.697 435.134 391.505 446.335 374.081 456.707C328.86 483.673 259.163 505.661 216.017 487.822C167.478 467.908 72.4738 445.506 32.6467 379.127C23.1048 363.777 16.0521 347.597 10.244 331.003C6.09538 318.557 14.3927 311.504 10.244 299.473C-15.8925 221.893 10.6589 149.292 59.6129 96.1893C74.1332 80.0096 100.27 70.0528 119.353 58.4366Z" fill="#F7E7B5"/>
<path d="M248.376 293.25C240.494 288.272 230.122 289.101 223.07 294.909C214.772 301.962 203.986 312.334 203.571 319.801C202.327 332.247 186.147 354.65 181.583 379.127C177.02 403.189 135.533 379.127 143.83 371.245C152.128 363.777 189.466 321.876 180.754 318.557C172.041 315.238 147.979 330.588 140.097 320.631C132.214 310.674 144.245 258.401 154.202 252.178C164.574 245.955 205.645 265.039 211.454 260.476C217.262 255.912 240.909 238.488 232.612 205.299C224.314 172.109 298.99 154.685 310.191 174.599C320.978 194.927 245.472 244.711 250.036 266.284C254.599 287.857 312.681 279.974 320.978 279.559C328.86 278.73 368.687 311.089 298.99 365.851C228.878 420.614 277.002 324.78 263.727 306.941C258.333 300.718 252.94 296.569 248.376 293.25Z" fill="#D1922C"/>
</svg>
