<svg width="384" height="395" viewBox="0 0 384 395" fill="none" xmlns="http://www.w3.org/2000/svg">
<path d="M7.10762 175.266C7.10762 175.266 -19.1779 227.163 29.3491 323.206C77.876 419.249 257.156 395.659 273.332 382.516C289.508 369.374 317.141 376.113 360.95 305.008C404.422 233.566 372.745 105.508 370.049 104.16C367.69 102.812 321.859 37.0988 307.705 35.7508C293.551 34.4029 7.10762 175.266 7.10762 175.266Z" fill="#D0BB88"/>
<path d="M25.3051 110.901C46.1986 53.6118 84.9528 1.71487 140.894 2.05187C175.941 2.05187 209.303 -5.02498 243.339 7.10676C250.079 9.46571 261.2 14.8576 268.277 16.2056C315.456 23.9564 343.763 75.8533 357.917 119.325C365.331 141.904 364.657 168.189 357.58 189.42C352.862 203.237 361.287 206.943 355.895 221.434C342.415 258.84 311.749 304.671 278.724 315.118C241.654 326.576 176.278 358.927 122.359 339.382C109.89 334.664 98.0956 328.935 87.3118 321.858C79.224 316.803 80.572 308.378 72.8212 303.323C21.9353 270.635 4.07464 215.368 8.11855 161.112C9.12953 144.937 19.5762 126.739 25.3051 110.901Z" fill="#F7E7B5"/>
<path d="M193.465 165.156C195.15 158.416 192.117 151.34 186.051 147.296C178.974 142.915 169.201 137.523 163.809 138.871C154.711 140.893 134.828 134.153 116.63 136.175C98.4327 138.197 105.847 103.487 113.26 107.531C120.674 111.574 159.091 129.435 159.428 122.358C159.765 115.281 142.916 101.802 148.308 93.7139C153.362 85.626 193.465 82.9301 200.205 88.996C206.944 95.0618 203.237 128.424 207.955 131.457C212.673 134.49 230.534 147.633 252.101 134.153C273.669 121.01 303.998 170.211 292.203 182.68C280.409 195.149 227.164 152.351 213.01 160.101C198.856 168.189 218.065 207.617 220.424 213.346C222.783 219.075 209.64 254.459 154.036 216.716C98.4327 178.973 177.963 192.116 187.399 178.636C190.432 173.918 192.454 169.2 193.465 165.156Z" fill="#D1922C"/>
</svg>
