<svg xmlns="http://www.w3.org/2000/svg" viewBox="0 0 330.7 157.84"><defs><style>.cls-1{fill:#fff;}.cls-2,.cls-3{fill:none;}.cls-3{stroke:#162750;stroke-linecap:round;stroke-miterlimit:10;stroke-width:15px;}</style></defs><g id="Layer_2" data-name="Layer 2"><g id="Layer_1-2" data-name="Layer 1"><path class="cls-1" d="M153.68,89.62c0,27.32-10.49,51.78-27,68.22H27C10.49,141.4,0,116.94,0,89.62,0,40.12,34.4,0,76.83,0S153.68,40.12,153.68,89.62Z"/><path class="cls-1" d="M303.68,157.84c16.53-16.44,27-40.9,27-68.22C330.7,40.12,296.3,0,253.86,0S177,40.12,177,89.62c0,27.32,10.48,51.78,27,68.22Z"/><line class="cls-2" x1="303.68" y1="157.84" x2="204.04" y2="157.84"/><line class="cls-3" x1="102.58" y1="39.01" x2="51.1" y2="75.58"/><line class="cls-3" x1="60.05" y1="35.68" x2="89.21" y2="84.13"/><line class="cls-3" x1="278.8" y1="36.4" x2="227.33" y2="72.97"/><line class="cls-3" x1="236.27" y1="33.07" x2="265.44" y2="81.52"/></g></g></svg>