<svg width="724" height="567" viewBox="0 0 724 567" fill="none" xmlns="http://www.w3.org/2000/svg">
<g clip-path="url(#clip0)">
<path d="M664 183.6C664 183.6 653.3 193.9 653.2 244C653.1 294.1 644.6 209.4 644.6 209.4L658.5 183.3L664 183.6Z" fill="#686766"/>
<path d="M675.4 185.3C692 179.9 703.5 170.2 709.5 155.7C710.1 154.2 710.2 152.5 712.4 152C713 158.2 709 163 706.1 168.1C700.4 178.3 693.9 184.1 684.9 192.6C678.2 199 670.9 201.2 665.9 215.3C662.3 213.7 665.1 211.3 665.1 209.3C665.1 207.4 665.6 205.5 665.8 203.6C666 199.4 668.2 195.9 671 192.6C671 189.6 674.8 188.2 675.4 185.3Z" fill="#686766"/>
<path d="M666.6 16.3C667.4 16.4 668.3 16.6001 669.1 16.7001C673.3 18.2001 677.4 19.7001 681.6 21.2001C682.1 23.6001 683.7 25.1 686.5 25.6C689.1 30.1 693.6 33.2001 697.4 36.9001C697.4 37.2001 697.5 37.4 697.8 37.5C703.3 46.8 709.8 55.6 713.9 65.6C709.6 65.5 705.7 62.5 700.9 64.5C699.4 65.1 697.5 63.6001 696.3 62.2001C695.3 61.0001 694.2 60.0001 692.7 59.4001C672.7 50.9001 655.3 55.8 639.1 67C637.4 68.2 635.4 69.5 635.3 71.7C635.2 73.2 635.2 74.7 636.7 75.6C638.6 76.8 639.7 75.2001 640.9 74.4001C642.9 72.9001 645 71.4 646.9 69.7C655 62.6 667 61.5001 677.2 66.9001C675.5 68.4001 673.8 67.2 672.1 67C667.4 66.5 662.5 65.7 658.1 68C649.9 72.3 643.3 78.1001 637.9 84.9001C635.4 88.0001 632.8 91 633 95C633 96.2 632.5 97.7 634.2 98.3C635.7 98.9 636.3 97.7001 637.1 96.9001C638.5 95.5001 640.1 94.7001 641.7 96.6001C642.8 97.9001 643.9 100.1 641.9 100.9C637 102.7 638.5 107.1 636.3 110.1C640.6 105.8 648.6 105.2 650.4 98.7C650.7 97.7 651 96.4 652.7 96.8C654.2 97.2 654.1 98.4 654.1 99.5C654.3 102.4 653.9 105 651 107.3C649.5 108.5 649 111.3 650.8 112.7C652.3 113.8 654.5 112.2 655.2 110.9C657.2 107.6 661.5 106.9 664.1 104.3C665.7 102.7 666.7 104 667.1 105.2C667.6 106.8 667.4 108.3 666.4 109.8C664 113.5 656.4 116.4 650.7 115.3C648.1 114.8 646.7 115.4 645.8 117.4C645.1 118.8 643.1 120.2 644.4 121.8C645.8 123.4 648.3 123 650.2 122.5C652.7 121.9 655 120.3 657.6 121.9C654.9 125 652.2 128.1 649.6 131.2C649 131.9 648.5 132.9 649.4 133.6C650.8 134.7 651.6 133.4 652.2 132.6C653.6 130.6 654.9 128.6 657.8 128.3C660.1 130.1 656.7 131.5 657.6 133.2C661.9 132 662.4 131.6 664.9 129.4C675 120.5 677.6 109.5 676 97.6001C675 90.8001 673.8 83.5 665.6 79.6C664.3 79 662.4 78.6 663.2 77.1C664.1 75.4 666 76.1 667.5 76.7C672.2 78.6 675.5 81.8 678 85.5C687.9 100.4 682.4 121.7 665.8 132.8C663.9 134 661.7 135.2 661.6 137.2C661.4 141.2 658.1 142 654.8 143.1C653.1 143.6 651.5 144.5 649.7 145.1C644.5 146.8 645.6 151.5 646 154.1C646.4 157 651.5 156.3 654.7 155.8C657.7 155.3 660.6 154.2 663.6 153.4C665.5 152.9 667.5 152.3 669.6 153.9C667.1 155.6 664.8 157.1 662.5 158.6C661.5 159.3 660.7 160.2 661.2 161.4C661.7 162.7 663.1 162.6 664.3 162.7C666.2 162.8 667.8 162.4 669.6 161.5C676.5 158 680.9 152.8 684.6 146.8C691.4 135.9 692 123.9 692.8 112C693.4 102.9 691 94 686.9 85.5C686.1 83.9 684.6 82.1001 686 79.9001C689.4 81.9001 690.1 85 691.4 87.7C704.2 115.1 704.9 141.5 683.8 166.4C682.9 167.5 682.1 168.6 683 169.8C684.3 171.6 685.7 170.8 687.1 169.9C689.7 168.4 690.3 171.6 692.4 171.6C693.2 171.6 693.6 172.8 692.9 173.3C690.2 175.2 687.6 178.1 684.6 178.4C681.9 178.8 677.8 177.4 676.2 174.4C675.4 172.9 674.6 171.9 672.6 172.3C671.3 172.5 670.4 173.2 670 174.4C669.6 175.9 670.5 176.8 671.9 177.4C676 179.4 675.7 181.3 671.9 183.2C670.7 183.8 670 184.6 670.6 185.9C664.8 188.5 658.1 187.5 652 189.1C647.8 190.2 644.9 191.7 644.7 195.7C644.4 195.6 644 195.6 643.7 195.7C636.1 191 628.5 186.4 621 181.6C615.3 178 610.3 173.9 606.7 168.4C603.5 163.5 602.6 158 600.6 152.8C597.6 144.9 595 137.1 594 128.8C592.5 116.6 593.1 104.6 594.2 92.4001C595.3 81.0001 599.5 70.4 606.3 61.1C610.6 55.3 616.8 51.0001 620.5 44.2001C623.4 38.9001 626.5 32.1 633.3 28.4C633.8 28.1 633.8 27.1 634.1 26.4V26.5C635.2 26.6 636.1 26.2 636.6 25.3C639.1 24.4 640.4 22.7 641 20.5C642.4 20.3 643.8 20 645.1 19.8C646.3 20.1 647.3 20 648 19C648.7 18.9 649.3 18.8001 650 18.7001C650.8 18.9001 651.3 18.6 651.6 18C653.4 17.1 653.7 20.9 655.8 19.1C658.9 16.5001 663 17 666.6 16.3ZM621.4 120.4C624.3 120.1 624.2 118.2 623.8 116.7C622.5 111.9 623.4 107 622.4 102.3C621.5 97.9 618.9 93.7 616.6 88.5C614.1 93.5 617.3 97.1 616.5 100.8C616.3 101.8 616.9 103.2 615.3 103.5C613.4 103.8 613.1 102.3 612.7 101.1C610.8 94.7001 609.4 88.3001 611.8 81.6001C614.4 74.3001 615.2 66.5 622.4 61.1C623.2 60.5 623.8 59.2 622.4 58.3C621.3 57.7 620.5 58.4 619.7 59C611 66 605 73.9 605.2 85C605.4 93.8 607.5 102.3 608.6 111C609.4 116.9 612.7 120.9 616.5 125.1C617.4 126.1 618.5 127.1 620.2 126.5C621.6 126 621.3 124.7 621.3 123.7C621.5 122.5 621.4 121.4 621.4 120.4ZM634.5 128.9C635.4 126.6 633.7 123.5 637.9 122.6C639.5 122.3 639.3 120.2 638.5 118.8C637.1 116.5 634.2 116.9 631.9 116.5C630 116.1 629.1 118.3 629.3 119.5C629.8 122.9 630 126.6 634.5 128.9ZM649.7 44.7001C654 45.1001 656.7 43.3001 659.3 41.4001C660.4 40.6001 660.7 39.1 659.4 38.1C658.3 37.3 657.1 37.9001 656.2 38.7001C654.1 40.6001 652 42.5001 649.7 44.7001Z" fill="white"/>
<path d="M634.2 26.5C634 27.2 633.9 28.2 633.4 28.5C626.6 32.2 623.5 39 620.6 44.3C616.8 51.1 610.6 55.5 606.4 61.2C599.6 70.5 595.4 81.1 594.3 92.5C593.2 104.6 592.6 116.7 594.1 128.9C595.1 137.2 597.7 145 600.7 152.9C602.7 158.1 603.5 163.6 606.8 168.5C610.4 174 615.4 178.1 621.1 181.7C628.6 186.5 636.2 191.1 643.8 195.8C641.8 200.3 645.2 204.4 645.1 208.8C645.1 209.5 645.7 210.6 646.3 210.3C650.7 207.7 649.2 211.6 650.4 212.8C652.5 214.8 655.7 215.5 658.6 215C661.1 214.5 661 212.4 660.5 210.5C659.7 207.6 661.4 205 661.1 201.7C663 202.5 664.4 203.1 665.8 203.7C665.5 205.6 665 207.5 665.1 209.4C665.1 211.4 662.3 213.8 665.9 215.4C666 233.7 666.1 252 666.3 270.3C665.7 272.5 665.5 274.8 666.6 277C666.8 280.2 667 283.4 667.2 286.6C666.3 286.6 665.4 286.6 664.6 286.6C664.2 285.1 663.9 283.7 663.5 282.2C663.2 280.1 664.7 277.6 662.1 275.9C662 275.2 661.9 274.6 661.8 273.9C664.5 269.8 661.7 265.6 662.4 261.4C662.6 260.3 663.4 258.2 660.8 258.2C658.5 258.2 657 259.3 657.1 261.6C657.2 265.7 657.3 269.8 657.4 273.8C657.3 283.1 657.5 292.5 658.8 301.8C657 302 657.9 305.1 655.7 304.4C653.8 303.8 654.7 301.9 654.6 300.5C654.5 298.3 654.6 296.2 654.6 293.9C650.8 294.5 653.8 299.5 650.5 298.5C644.1 296.5 645.6 299.9 644.7 303C643.2 308.1 645.7 313 644.8 317.8C643.5 324.6 650.6 329.7 649 336.3C648.9 336.8 649.6 338 651.7 337.8C652.2 334.2 653 330.4 653.3 326.5C653.6 322 653.2 317.5 653.6 313C653.8 310.2 654.3 306.9 659.4 308.2C659.4 309.2 659.4 310.2 659.4 311.2C657.2 312.2 656.6 313.8 657.2 315.7C658.9 320.5 658 325.2 657 330C656.2 333.9 653.7 338.1 658.4 341.6C658.8 344 657.6 346 656 347.8C654.5 348.8 652.9 349.6 651.6 350.7C650.6 351.6 650.2 353 651.8 353.9C656.9 356.9 657.1 358.7 653.9 363.1C652.7 364.7 648.7 366.4 652.8 369.1C653.8 369.8 652.9 371.4 652.4 372.6C651.8 374.1 647.5 377 654.2 376.6C656.2 376.5 654.6 378.8 653.9 379.4C651.9 381.2 649.6 382.9 649.3 385.6C649.2 386.7 648.3 389.1 651.5 387.8C652.4 387.4 653.2 386.4 653.9 387.6C654.2 388.2 653.9 389.5 653.3 390C649.5 393.5 650.1 397.3 650.9 401.7C651.3 404.1 656.4 410.7 646.6 410.5C644.9 410.5 645.5 412.5 645.4 413.7C643.4 434.3 644 454.9 644.2 475.5C644.2 476.6 643.5 478.1 645.9 478.6C649.5 457.1 644.7 435.1 651.3 414C656.7 420.8 653.3 428.1 654 435.2C654.3 438.4 655.2 441.6 652 445C649.7 447.5 652.7 451.6 653.7 455C656.2 463.7 653.3 472.7 654.1 481.6C654.3 484.1 658.4 489.6 651.9 491.8C652.1 492.3 652.2 493 652.6 493.2C657.1 495.5 655.1 502 661.1 503.3C661.2 503.3 661.1 504.3 661.1 504.8C660.8 504.9 660.5 505 660.2 505.1C657.7 504.8 658.1 506.9 657.1 507.7C654.4 510 657.7 513.6 654.4 515.7C651 517.9 652.8 521.4 654.7 522.5C658.9 524.9 656.3 527.6 655.4 529.2C654 532 651.2 529.9 649 529.1C646.7 528.2 644.9 526.9 643.5 524.9C635.6 513.4 630.5 501 630.4 487.8C630.1 462.7 630.2 437.7 631.5 412.6C632.5 393.5 633 374.3 634.3 355.1C635.9 330.1 637.2 305 638.2 279.9C639.1 255 639 230.1 634.7 205.3C634.4 203.3 633.3 201.7 632 200C624.5 190 613.5 182.9 604 174.5C597.1 168.3 592.2 161.3 589.9 152.8C587.8 145.1 585.6 137.5 584.9 129.6C582.7 104.7 583.6 80.6 599.6 58.3C606.2 49.1 613.8 40.9 622.4 33.3C625.7 31.1 629.2 27.7 634.2 26.5ZM643.9 501C639.8 478.8 639.9 456.5 641.6 434.1C641.7 434 641.9 434 642 433.9C642.1 433.8 642 433.7 642.1 433.6C642 433.8 641.8 433.9 641.7 434.1C637.9 434.4 639.3 437 639.3 438.7C639.1 455.4 638.1 472.2 639.6 488.9C639.9 492.9 639.7 497.7 643.9 501C644 503.2 643.9 505.5 647.2 507.2C647.3 504.2 646.3 502.3 643.9 501ZM640.9 421.3C645 409.2 643.9 396.9 644.2 384.6C644.5 372.2 645.8 359.8 646.6 347.4C645.8 347.4 645 347.4 644.2 347.3C640.7 371.9 641.1 396.6 640.9 421.3ZM652.5 290.2C656 287.2 654.8 284.8 654.9 281.7C651.6 284.3 652.5 286.7 652.5 290.2Z" fill="#686766"/>
<path d="M670.5 185.9C669.9 184.6 670.6 183.9 671.8 183.3C675.6 181.3 675.9 179.4 671.8 177.5C670.4 176.8 669.5 175.9 669.9 174.5C670.2 173.4 671.1 172.7 672.4 172.4C674.4 172 675.2 172.9 676 174.5C677.6 177.5 681.7 178.8 684.4 178.5C687.4 178.1 690 175.3 692.7 173.4C693.4 172.9 693 171.7 692.2 171.7C690.1 171.7 689.5 168.4 686.9 170C685.4 170.9 684 171.7 682.8 169.9C681.9 168.6 682.7 167.5 683.6 166.5C704.7 141.6 704 115.1 691.2 87.8001C689.9 85.1001 689.2 82.0001 685.8 80.0001C684.4 82.3001 685.9 84.1001 686.7 85.6001C690.8 94.1001 693.3 103 692.6 112.1C691.8 124 691.2 136 684.4 146.9C680.7 152.8 676.2 158.1 669.4 161.6C667.7 162.5 666 162.9 664.1 162.8C662.9 162.7 661.5 162.9 661 161.5C660.6 160.3 661.3 159.4 662.3 158.7C664.5 157.2 666.8 155.7 669.3 154C667.2 152.4 665.2 152.9 663.3 153.5C660.3 154.3 657.5 155.4 654.4 155.9C651.2 156.4 646.2 157.1 645.7 154.2C645.3 151.6 644.2 146.9 649.4 145.2C651.1 144.6 652.7 143.8 654.5 143.2C657.9 142.2 661.1 141.3 661.3 137.3C661.4 135.3 663.6 134.1 665.5 132.9C682.1 121.8 687.5 100.5 677.6 85.6001C675.1 81.8001 671.8 78.6001 667.1 76.8001C665.6 76.2001 663.6 75.5001 662.8 77.2001C662 78.7001 664 79.1001 665.2 79.7001C673.4 83.6001 674.6 90.8001 675.6 97.7001C677.3 109.5 674.7 120.6 664.5 129.5C662 131.7 661.5 132.1 657.2 133.3C656.2 131.7 659.7 130.2 657.4 128.4C654.5 128.8 653.2 130.8 651.8 132.7C651.2 133.6 650.4 134.8 649 133.7C648.1 133 648.6 132 649.2 131.3C651.9 128.2 654.5 125.1 657.2 122C654.6 120.4 652.3 122 649.8 122.6C647.9 123.1 645.4 123.5 644 121.9C642.7 120.3 644.7 119 645.4 117.5C646.3 115.6 647.7 114.9 650.3 115.4C656 116.5 663.5 113.6 666 109.9C667 108.3 667.2 106.8 666.7 105.3C666.3 104.1 665.3 102.7 663.7 104.4C661.1 107 656.8 107.7 654.8 111C654 112.3 651.9 113.9 650.4 112.8C648.6 111.4 649.1 108.6 650.6 107.4C653.5 105.1 653.9 102.6 653.7 99.6001C653.6 98.5001 653.8 97.3001 652.3 96.9001C650.5 96.5001 650.3 97.8001 650 98.8001C648.2 105.3 640.2 106 635.9 110.2C638 107.2 636.6 102.8 641.5 101C643.5 100.2 642.3 98.0001 641.3 96.7001C639.8 94.8001 638.1 95.6001 636.7 97.0001C635.9 97.8001 635.3 99.0001 633.8 98.4001C632.1 97.7001 632.6 96.2001 632.6 95.1001C632.5 91.1001 635 88.1001 637.5 85.0001C643 78.2001 649.5 72.4001 657.7 68.1001C662.1 65.8001 666.9 66.6001 671.6 67.1001C673.3 67.3001 675 68.5001 676.7 67.0001C666.1 61.4001 653.6 62.8001 645.5 70.6001C644 72.0001 642.3 73.2001 640.5 74.3001C639.3 75.1001 638.2 76.9001 636.2 75.6001C634.7 74.6001 634.7 73.1001 634.8 71.7001C635 69.5001 636.9 68.2001 638.6 67.0001C654.8 55.8001 672.2 50.9001 692.1 59.4001C693.7 60.1001 694.7 61.1001 695.7 62.2001C696.9 63.6001 698.8 65.1001 700.3 64.5001C705.1 62.5001 708.9 65.5001 713.3 65.6001C713.6 67.4001 714.7 68.6001 716.8 69.0001C722.8 83.8001 723.7 99.1001 723.1 114.6C723.1 115.2 722.4 115.8 722 116.4C719.7 115.4 717.3 115.1 717.2 118C717.1 120.4 716 123.8 721.1 123.8C722.6 131.6 718.5 138.4 715.3 145.2C714.2 147.4 712.6 149.5 712.1 151.9C709.9 152.4 709.8 154.1 709.2 155.6C703.6 169.3 693.1 180.1 678 185.6C676.8 186.1 675 189.7 674.1 186.3C674 185.3 671.8 185.7 670.5 185.9ZM641.5 90.2001C641.1 90.4001 639.9 89.7001 640.2 90.9001C640.6 90.7001 641 90.4001 641.5 90.2001C644 89.6001 646.4 88.6001 648.7 91.0001C651.6 94.1001 656.4 93.2001 660.2 94.4001C661.4 94.8001 663 93.5001 662.3 92.6001C659.6 89.0001 661.3 85.4001 661.5 81.8001C661.6 80.3001 660.4 79.8001 658.9 79.3001C652.3 77.2001 643 83.0001 641.5 90.2001ZM700.4 77.2001C704.5 80.2001 706.5 84.1001 707.7 88.5001C708.4 91.1001 710 94.4001 707.2 96.0001C701.6 99.2001 704.8 101.6 707.4 104.2C709 105.8 710.8 107.1 711.6 109.3C712.2 110.8 714.3 111.8 716.1 111.3C717.8 110.9 717.1 109.2 717.1 108C717.2 104.1 717.2 100.1 714.4 96.7001C713.5 95.5001 713.5 94.4001 713.7 93.2001C715.1 84.9001 708.7 73.2001 700.7 69.0001C698.1 67.6001 696.6 67.5001 695.8 70.3001C693 69.7001 691.7 67.5001 689.6 66.1001C687.3 64.5001 685 62.7001 680.4 64.4001C690 69.4001 694 77.9001 701.5 84.5001C702.5 81.0001 699.4 79.5001 700.4 77.2001ZM706 110.2C704.1 113.2 705.3 115.6 706.5 118.1C708.8 123.1 709.8 128.4 709.8 133.8C709.8 135.2 710.2 136.7 712.1 137.2C713.1 137.5 713.6 136.6 713.8 135.9C715 130.2 717.7 124.1 713.9 118.8C711.7 116 707.7 113.9 706 110.2ZM683.6 71.3001C682.8 69.4001 682.6 67.7001 680.1 67.9001C679.7 67.9001 679.1 68.8001 679.2 69.0001C680 70.3001 680.7 71.9001 683.6 71.3001Z" fill="#FAEFE0"/>
<path d="M650.1 18.7001C649.4 18.8001 648.8 18.9001 648.1 19.0001C647 18.8001 646 19.0001 645.2 19.8001C643.8 20.0001 642.4 20.3001 641.1 20.5001C637.4 20.3001 634.3 21.7001 631.3 23.3001C622.4 28.0001 614.9 34.2001 608.3 41.0001C598.4 51.2001 589.9 62.1001 585.7 75.2001C578.5 97.1001 578.1 119.2 581.7 141.7C585 161.8 596.8 177.3 614.4 189.7C621.7 194.8 626.6 200.6 629.1 208.2C633 219.6 634.5 231.4 634.7 243.2C635.2 269.6 633.6 295.9 632.4 322.2C631.7 337.2 630.8 352.2 629.8 367.3C628.2 390 627.7 412.8 627 435.5C626.6 450.2 627.1 465 626.6 479.7C626.3 489.3 627.3 498.7 630.8 507.8C633.6 515 635.6 522.6 640.9 528.9C647.3 536.5 657.9 538.2 663.4 529.4C663.8 528.8 664.6 528.5 665.2 528C669 528.8 669.6 530.5 669 533.9C668.1 539 666.4 543.7 662.9 547.7C652.8 559.1 643.2 556.6 635.8 545.9C628.9 535.9 626.1 524.5 625.1 512.7C624 499.9 622 487 623 474.2C624.9 451.8 623.2 429.3 624.5 407C625.4 390.7 625.7 374.4 627.1 358.2C628.6 340.9 629 323.5 629.8 306.2C630.7 287.2 631 268.2 630.9 249.2C630.9 244 631.1 238.6 629.3 233.8C626.5 226.3 621.6 219.4 614.6 214.2C603.2 205.8 592.7 196.7 587 184.6C583.1 176.4 581.2 167.6 580.2 158.7C578.8 146.9 576.9 135.1 575.7 123.3C574.4 110.4 576.3 97.7001 579.6 85.0001C584.6 65.4001 595.3 48.5001 611.4 34.4001C621.6 25.5001 632.8 16.9001 648.3 15.3001C654.4 14.7001 660.6 13.8001 666.5 16.4001C662.9 17.1001 658.8 16.5001 655.8 19.1001C653.7 20.9001 653.5 17.1001 651.6 18.0001C651.1 18.2001 650.6 18.5001 650.1 18.7001Z" fill="#D7D3D1"/>
<path d="M665.2 527.9C664.6 528.4 663.7 528.7 663.4 529.3C657.9 538.1 647.3 536.3 640.9 528.8C635.6 522.5 633.6 514.9 630.8 507.7C627.3 498.6 626.2 489.2 626.6 479.6C627.1 464.9 626.6 450.1 627 435.4C627.7 412.6 628.2 389.9 629.8 367.2C630.8 352.2 631.7 337.2 632.4 322.1C633.6 295.8 635.2 269.4 634.7 243.1C634.5 231.3 633 219.6 629.1 208.1C626.5 200.5 621.7 194.8 614.4 189.6C596.9 177.3 585 161.8 581.7 141.6C578 119.1 578.5 97.0002 585.7 75.1002C590 62.1002 598.4 51.1002 608.3 40.9002C615 34.1002 622.4 27.9002 631.3 23.2002C634.3 21.6002 637.4 20.2002 641.1 20.4002C640.5 22.6002 639.2 24.4002 636.7 25.2002C635.7 25.3002 634.7 25.5002 634.2 26.4002V26.3002C629.2 27.5002 625.8 30.9002 622.5 33.8002C614 41.4002 606.4 49.7002 599.7 58.8002C583.7 81.1002 582.8 105.2 585 130.1C585.7 138 587.9 145.6 590 153.3C592.3 161.7 597.2 168.8 604.1 175C613.5 183.4 624.6 190.5 632.1 200.5C633.4 202.2 634.4 203.8 634.8 205.8C639 230.6 639.2 255.5 638.3 280.4C637.4 305.5 636.1 330.5 634.4 355.6C633.2 374.7 632.6 393.9 631.6 413.1C630.3 438.2 630.2 463.2 630.5 488.3C630.7 501.5 635.8 513.9 643.6 525.4C645 527.4 646.7 528.7 649.1 529.6C651.3 530.4 654.1 532.5 655.5 529.7C656.3 528 659 525.3 654.8 523C652.9 521.9 651.1 518.4 654.5 516.2C657.8 514 654.6 510.5 657.2 508.2C658.2 507.3 657.8 505.2 660.3 505.6C659.2 508.9 664.5 507.9 664.3 509.6C663.5 514.5 668.1 518.8 666.3 523.7C665.8 525.1 665.5 526.5 665.2 527.9Z" fill="#686766"/>
<path d="M658.6 301.6C657.3 292.3 657.1 283 657.2 273.6C658.7 273.6 660.2 273.7 661.6 273.7C661.7 274.4 661.8 275 661.9 275.7C660.8 278.1 659.1 280.6 663.3 282C663.7 283.5 664 284.9 664.4 286.4C661.1 286.6 662.1 288.8 662 290.4C661.5 297.2 664.5 303.5 665.8 310C666.8 314.7 664.8 320.1 669.2 324.2C669.2 325.6 667.9 326.7 668.4 328.3C670.1 332.9 670 338.5 669 342.3C667.6 348 670.6 349.7 674 352.3C674 352.9 674.1 353.6 674.1 354.2C669.5 358 670.6 365.2 676.3 368.4C679.5 373.4 679.4 379 680 384.4C680.4 387.8 679.6 391.2 681 394.5C681.6 396 681.6 397.8 680.1 399.1C678.7 400.4 678.1 401.3 679.4 403.2C680.6 405 681 407 677.9 408.6C675.6 409.7 677.6 412.4 677.3 414.3C677.2 414.8 679.1 415.8 678 416.5C673.9 419.2 675.8 420.4 679.8 420.7C678.6 423.1 676.7 423.2 675 423.6C673 424.2 671.5 425 672 421.8C672.5 418.4 669.8 415.3 670.4 411.8C668.7 411.8 667.9 412.2 667.9 413C667.7 421.2 667.2 429.4 667.5 437.5C667.8 444.1 667.5 450.7 668.3 457.3C669.7 468.3 669.4 479.5 669.9 490.6C670 492.3 669.5 493.8 667.5 494.6C665.7 493.7 666.3 492.1 666 490.8C664.7 485.8 663.7 480.7 665.3 475.7C667.7 468.3 662.2 461.6 663.4 454.3C663.8 451.9 661.1 449.2 663.9 446.8C664.7 446.1 664.1 445.6 663.2 445.2C657.4 442.4 659.3 437.8 660.9 434.4C662.7 430.4 662 426.8 662.1 422.9C662.3 417.6 657.9 413.3 658.8 407.9C659.2 405.5 658.5 403.4 655 402.7C652.8 402.3 652.7 400.7 653.2 398.8C654.6 394 658.7 390.7 661.1 386.4C663 383 664.6 378.6 661.2 376.3C655.6 372.4 654.4 369.1 659.4 364.2C662.5 361.2 661.7 358.1 657.3 355.7C659.1 354.3 662.3 353.1 662.5 351.7C663.1 347.2 658.8 347.9 655.6 347.9C657.1 346 658.3 344.1 658 341.7C661.1 341.1 663.9 340.4 660.2 337.2C659 336.2 658.7 334.6 659.1 333.1C660.8 325.8 660.5 318.6 659.1 311.3C659.1 310.3 659.1 309.3 659.1 308.3C659.2 306 660.5 303.6 658.6 301.6ZM670.1 401.4C671.5 399.6 675.2 399.1 675.8 396.6C676.2 395 673.7 395.4 672.4 395.6C669.7 396 668 397.5 667.9 400C667.9 400.8 668.2 401.7 670.1 401.4ZM666.7 386.3C667.9 386.2 668.5 385.5 668.8 384.6C669.1 383.5 668.6 382.8 667.3 382.8C666.1 382.8 665.7 383.8 665.6 384.7C665.5 385.4 665.5 386.2 666.7 386.3Z" fill="#686766"/>
<path d="M655.9 347.8C659.2 347.9 663.5 347.2 662.8 351.6C662.6 353.1 659.4 354.3 657.6 355.6C662 358 662.7 361.1 659.7 364.1C654.7 369.1 655.9 372.3 661.5 376.2C664.9 378.6 663.3 382.9 661.4 386.3C659 390.5 654.9 393.9 653.5 398.7C653 400.6 653.1 402.2 655.3 402.6C658.8 403.3 659.5 405.4 659.1 407.8C658.2 413.1 662.6 417.5 662.4 422.8C662.2 426.7 663 430.3 661.2 434.3C659.6 437.7 657.7 442.3 663.5 445.1C664.3 445.5 664.9 446.1 664.2 446.7C661.4 449.2 664.1 451.8 663.7 454.2C662.5 461.5 668 468.2 665.6 475.6C664 480.5 665 485.7 666.3 490.7C666.6 492 666 493.6 667.8 494.5C667.5 498.5 665.5 502 663.1 505.4C662.5 505.3 661.8 505.2 661.2 505.1C661.2 504.6 661.3 503.6 661.2 503.6C655.1 502.3 657.1 495.8 652.7 493.5C652.3 493.3 652.2 492.6 652 492.1C658.6 489.9 654.5 484.4 654.2 481.9C653.4 473 656.3 464 653.8 455.3C652.8 451.9 649.7 447.8 652.1 445.3C655.3 441.9 654.4 438.6 654.1 435.5C653.4 428.5 656.8 421.2 651.4 414.3C644.8 435.4 649.5 457.4 646 478.9C643.6 478.3 644.3 476.8 644.3 475.8C644.1 455.2 643.5 434.5 645.5 414C645.6 412.8 645.1 410.7 646.7 410.8C656.5 411 651.4 404.4 651 402C650.2 397.5 649.5 393.8 653.4 390.3C654 389.8 654.3 388.5 654 387.9C653.3 386.7 652.5 387.7 651.6 388.1C648.4 389.4 649.3 387 649.4 385.9C649.7 383.2 651.9 381.6 654 379.7C654.7 379 656.3 376.8 654.3 376.9C647.6 377.2 651.9 374.4 652.5 372.9C653 371.7 653.8 370 652.9 369.4C648.8 366.6 652.8 365 654 363.4C657.2 359 657 357.2 651.9 354.2C650.3 353.3 650.6 351.9 651.7 351C652.7 349.6 654.4 348.7 655.9 347.8Z" fill="#686766"/>
<path d="M676.4 478.5C674 476.6 672.8 474.6 675.5 472.1C678.9 468.9 680.3 465.5 679.1 460.9C678.2 457.7 678.8 454.1 679 450.8C679.1 449.4 678 446.5 680.3 447C682.2 447.4 686.4 446.8 686.4 450.7C686.2 459.4 686.8 468.1 686 476.8C685.6 481.1 686.9 485.5 685.4 489.9C684.6 492.2 683.5 493.5 681.5 494.6C680.8 494 679.3 486.3 680.2 485.2C683.1 481.1 679.9 479.8 676.4 478.5Z" fill="#686766"/>
<path d="M661.1 505.2C661.7 505.3 662.4 505.4 663 505.5C664.2 508.5 668 506.7 669.9 508.3C670.5 510.3 668.1 513.2 672.4 514C672.5 514.1 672.5 514.3 672.6 514.4C672.7 514.5 672.8 514.5 672.9 514.5C672.7 514.4 672.5 514.2 672.3 514.1C672.3 511.8 672.2 509.5 673.6 507.5C676.6 505.9 675.9 502.9 677.3 500.7C678.1 499.8 679 498.9 679.8 497.9C684.7 504.4 683.6 508.8 675.5 512.6C680.7 513.1 683 513.8 677.7 517.4C674 519.9 671.7 524 666 523.8C667.8 518.9 663.2 514.6 664 509.7C664.3 508 658.9 509 660 505.7C660.5 505.4 660.8 505.3 661.1 505.2Z" fill="#686766"/>
<path d="M669.3 324.3C664.9 320.2 666.9 314.8 665.9 310.1C664.5 303.6 661.5 297.3 662.1 290.5C662.2 288.9 661.2 286.7 664.5 286.5C665.4 286.5 666.3 286.5 667.1 286.5C669.6 294.6 669.2 302.9 670 311.1C669.7 312.7 669 314.3 670.8 315.6C671.1 318 671.4 320.5 671.7 322.9C670.8 323.4 670.1 323.8 669.3 324.3Z" fill="#686766"/>
<path d="M674.2 352.3C670.7 349.7 667.8 348 669.2 342.3C670.1 338.5 670.2 332.9 668.6 328.3C668 326.7 669.4 325.6 669.4 324.2C670.2 324.3 670.9 324.3 671.7 324.4C673.8 333.6 672.3 343.1 674.2 352.3Z" fill="#686766"/>
<path d="M679.9 497.8C679.1 498.7 678.2 499.6 677.4 500.6C676.6 500.1 675.7 499.5 674.9 499C674.5 498.6 674.2 498.2 673.8 497.8C672.1 491.1 676.9 485.1 676.4 478.5C679.8 479.8 683.1 481.1 679.9 485.2C679 486.3 680.5 494.1 681.2 494.6C681.2 495.4 681.2 496.1 681.2 496.9C680.9 497.2 680.4 497.5 679.9 497.8Z" fill="#686766"/>
<path d="M717.1 68.9001C715 68.5001 713.9 67.3001 713.6 65.5001C709.6 55.6001 703.1 46.7001 697.5 37.4001C700.1 37.4001 700.7 39.3001 701.9 40.7001C709.3 49.3001 714.1 58.8001 717.1 68.9001Z" fill="#D7D3D1"/>
<path d="M676.5 368.5C670.8 365.2 669.7 358.1 674.3 354.3C675.8 358.9 677 363.6 676.5 368.5Z" fill="#686766"/>
<path d="M697.2 37.0002C693.4 33.4002 688.9 30.2002 686.3 25.7002C691.8 28.1002 696.6 31.0002 697.2 37.0002Z" fill="#D7D3D1"/>
<path d="M721.4 123.8C716.3 123.8 717.4 120.4 717.5 118C717.7 115 720 115.4 722.3 116.4C722 118.8 721.7 121.3 721.4 123.8Z" fill="white"/>
<path d="M681.5 21.3001C677.4 19.8001 673.2 18.3001 669.1 16.8001C674.8 14.8001 678.5 17.2001 681.5 21.3001Z" fill="#D7D3D1"/>
<path d="M672.5 514C668.2 513.2 670.6 510.3 670 508.3C671.3 508 672.5 507.7 673.8 507.4C672.3 509.5 672.4 511.8 672.5 514Z" fill="#686766"/>
<path d="M666.4 276.9C665.3 274.7 665.6 272.5 666.1 270.2Z" fill="#686766"/>
<path d="M686.4 25.7001C683.6 25.2001 682 23.7 681.6 21.3C684.4 21.7 686.1 23.1001 686.4 25.7001Z" fill="#D7D3D1"/>
<path d="M681.3 496.8C681.3 496 681.3 495.3 681.3 494.5C682.3 494.6 683.5 494.7 683.2 495.9C683.1 496.3 682 496.6 681.3 496.8Z" fill="#686766"/>
<path d="M671.6 324.4C670.8 324.3 670.1 324.3 669.3 324.2C670 323.8 670.8 323.3 671.5 322.9C671.6 323.4 671.6 323.9 671.6 324.4Z" fill="#686766"/>
<path d="M673.8 497.8C674.2 498.2 674.5 498.6 674.9 499C674.6 498.6 674.2 498.2 673.8 497.8Z" fill="#686766"/>
<path d="M621.4 120.4C621.4 121.5 621.4 122.6 621.4 123.6C621.3 124.6 621.7 125.9 620.3 126.4C618.6 127 617.5 126 616.6 125C612.8 120.8 609.5 116.8 608.7 110.9C607.5 102.3 605.5 93.8 605.3 84.9C605.1 73.8 611.1 65.9 619.9 59C620.7 58.4 621.5 57.7 622.6 58.3C624.1 59.1 623.4 60.5 622.6 61.1C615.3 66.5 614.5 74.3 612 81.6C609.6 88.3 611.1 94.7 612.9 101.1C613.3 102.3 613.6 103.8 615.5 103.5C617.1 103.2 616.5 101.8 616.7 100.8C617.5 97.1 614.3 93.5 616.8 88.5C619.1 93.7 621.7 97.9 622.6 102.3C623.5 107 622.7 111.9 623.9 116.7C624.2 118.2 624.3 120.1 621.4 120.4C621.3 119.5 621.3 118.6 619.9 118.7C619.8 118.7 619.5 118.9 619.5 119C619.4 120.2 620.5 120.2 621.4 120.4Z" fill="#FAEFE0"/>
<path d="M670.9 192.6C668.2 195.9 666 199.4 665.7 203.6C664.3 203 662.9 202.4 661 201.6C661.3 204.9 659.6 207.5 660.4 210.4C660.9 212.2 661 214.4 658.5 214.9C655.5 215.4 652.4 214.7 650.3 212.7C649.1 211.5 650.6 207.6 646.2 210.2C645.6 210.6 644.9 209.5 645 208.7C645.1 204.3 641.7 200.2 643.7 195.7C644.1 195.7 644.4 195.7 644.7 195.7C653.8 197.2 662.1 193.5 670.9 192.6ZM648.1 206.3C647.9 206.3 647.7 206.3 647.6 206.4C647.5 206.5 647.5 206.7 647.5 206.9C647.8 206.9 648 206.8 648.3 206.8C648.3 206.6 648.2 206.4 648.1 206.3Z" fill="#686766"/>
<path d="M634.4 128.9C630 126.6 629.7 122.9 629.3 119.6C629.1 118.4 629.9 116.3 631.9 116.6C634.1 117 637.1 116.6 638.5 118.9C639.3 120.3 639.5 122.3 637.9 122.7C633.6 123.5 635.3 126.6 634.4 128.9Z" fill="#FAEFE0"/>
<path d="M649.6 44.7002C652 42.5002 654 40.6002 656.1 38.7002C657 37.9002 658.2 37.3002 659.3 38.1002C660.6 39.1002 660.4 40.6002 659.2 41.4002C656.6 43.3002 653.9 45.2002 649.6 44.7002Z" fill="#FAEFE0"/>
<path d="M645.2 19.8C646 19 647 18.9 648.1 19C647.4 20 646.3 20.2 645.2 19.8Z" fill="#A09B98"/>
<path d="M634.1 26.6001C634.6 25.7001 635.5 25.5001 636.6 25.4001C636.1 26.3001 635.2 26.6001 634.1 26.6001Z" fill="#686766"/>
<path d="M650.1 18.7C650.6 18.5 651.2 18.2 651.7 18C651.4 18.6 650.9 18.9 650.1 18.7Z" fill="#A09B98"/>
<path d="M658.6 301.6C660.5 303.7 659.2 306 659.3 308.2C654.2 306.9 653.7 310.2 653.5 313C653.1 317.5 653.5 322 653.2 326.5C652.9 330.3 652.1 334.1 651.6 337.8C649.5 338 648.8 336.8 648.9 336.3C650.5 329.6 643.3 324.5 644.7 317.8C645.7 313 643.1 308.1 644.6 303C645.5 299.9 643.9 296.5 650.4 298.5C653.7 299.5 650.6 294.6 654.5 293.9C654.5 296.1 654.4 298.3 654.5 300.5C654.6 301.8 653.6 303.8 655.6 304.4C657.7 304.9 656.7 301.8 658.6 301.6ZM649.1 309.4C649.4 309.6 649.9 310 650 309.9C650.7 309.5 650.4 309.1 649.9 308.7C649.5 308.6 649.1 308.5 648.6 308.3C648.8 308.7 649 309 649.1 309.4ZM650.1 306.5C650.2 306.2 650.4 305.9 650.5 305.6C650.5 305.5 650.3 305.4 650.2 305.2C650 305.4 649.6 305.6 649.7 305.7C649.6 306 649.9 306.3 650.1 306.5Z" fill="#686766"/>
<path d="M640.9 421.3C641.1 396.6 640.7 371.9 644.3 347.4C645.1 347.4 645.9 347.4 646.7 347.5C645.9 359.9 644.6 372.3 644.3 384.7C644 396.9 645 409.3 640.9 421.3Z" fill="#686766"/>
<path d="M643.9 500.9C639.7 497.7 639.8 492.9 639.5 488.8C638 472.1 639 455.4 639.2 438.6C639.2 437 637.9 434.4 641.6 434C639.9 456.5 639.8 478.8 643.9 500.9Z" fill="#686766"/>
<path d="M659.2 311.2C660.6 318.5 660.9 325.7 659.2 333C658.9 334.5 659.2 336.1 660.3 337.1C664.1 340.3 661.3 341 658.1 341.6C653.4 338.1 655.9 333.9 656.7 330C657.7 325.2 658.6 320.5 656.9 315.7C656.4 313.8 657 312.1 659.2 311.2Z" fill="#686766"/>
<path d="M661.6 273.8C660.1 273.8 658.6 273.7 657.2 273.7C657.1 269.6 657 265.5 656.9 261.5C656.8 259.2 658.4 258.1 660.6 258.1C663.3 258.1 662.4 260.3 662.2 261.3C661.5 265.4 664.3 269.7 661.6 273.8Z" fill="#686766"/>
<path d="M652.5 290.2C652.5 286.7 651.6 284.3 654.9 281.7C654.8 284.8 656 287.2 652.5 290.2Z" fill="#686766"/>
<path d="M643.9 501C646.3 502.4 647.3 504.3 647.2 507.2C643.9 505.5 644 503.2 643.9 501C643.9 501 643.9 500.9 643.9 501Z" fill="#686766"/>
<path d="M663.4 282.1C659.2 280.6 660.9 278.1 662 275.8C664.6 277.5 663 279.9 663.4 282.1Z" fill="#686766"/>
<path d="M641.6 434.1C641.7 433.9 641.9 433.8 642 433.6C642 433.7 642 433.8 641.9 433.9C641.9 434 641.7 434.1 641.6 434.1Z" fill="#A09B98"/>
<path d="M695.9 70.3002C696.7 67.5002 698.3 67.6002 700.8 69.0002C708.8 73.3002 715.3 84.9002 713.8 93.2002C713.6 94.5002 713.5 95.6002 714.5 96.7002C717.3 100.1 717.3 104 717.2 108C717.2 109.2 717.9 110.9 716.2 111.3C714.3 111.8 712.2 110.8 711.7 109.3C710.8 107.1 709 105.8 707.5 104.2C704.9 101.5 701.7 99.2002 707.3 96.0002C710 94.4002 708.5 91.1002 707.8 88.5002C706.6 84.1002 704.6 80.2002 700.5 77.2002C700.4 76.9002 700.2 76.6002 700.2 76.2002C699.5 74.0002 699.7 71.5002 696.3 70.8002C696.1 70.6002 696 70.5002 695.9 70.3002Z" fill="white"/>
<path d="M641.5 90.2001C643.1 83.0001 652.3 77.2001 658.8 79.3001C660.3 79.8001 661.5 80.2001 661.4 81.8001C661.2 85.4001 659.5 89.0001 662.2 92.6001C663 93.6001 661.3 94.8001 660.1 94.4001C656.3 93.1001 651.5 94.1001 648.6 91.0001C646.4 88.6001 644 89.6001 641.5 90.2001Z" fill="white"/>
<path d="M706 110.2C707.7 113.9 711.8 115.9 713.9 118.9C717.7 124.2 715 130.3 713.8 136C713.7 136.6 713.1 137.5 712.1 137.3C710.2 136.8 709.8 135.2 709.8 133.9C709.8 128.5 708.7 123.2 706.5 118.2C705.3 115.6 704 113.2 706 110.2Z" fill="white"/>
<path d="M700.1 76.2002C700.2 76.5002 700.3 76.9002 700.4 77.2002C699.4 79.5002 702.4 81.0002 701.6 84.4002C694.1 77.8002 690.1 69.3002 680.5 64.3002C685.1 62.6002 687.4 64.5002 689.7 66.0002C691.8 67.4002 693.1 69.7002 695.9 70.2002C696 70.4002 696.1 70.5002 696.2 70.7002C696.9 73.0002 696.5 75.7002 700.1 76.2002Z" fill="#FAEFE0"/>
<path d="M683.6 71.3001C680.7 71.9001 680 70.3001 679.2 69.0001C679.1 68.8001 679.7 68.0001 680.1 67.9001C682.6 67.7001 682.9 69.4001 683.6 71.3001Z" fill="white"/>
<path d="M641.4 90.2002C641 90.4002 640.6 90.7002 640.1 90.9002C639.9 89.7002 641.1 90.5002 641.4 90.2002C641.4 90.2002 641.5 90.2002 641.4 90.2002Z" fill="#CF8F3B"/>
<path d="M670.1 401.4C668.2 401.7 667.9 400.8 667.9 399.9C668 397.4 669.6 395.9 672.4 395.5C673.7 395.3 676.2 394.9 675.8 396.5C675.2 399.1 671.5 399.6 670.1 401.4Z" fill="#686766"/>
<path d="M666.7 386.3C665.5 386.2 665.6 385.4 665.6 384.7C665.7 383.8 666.1 382.8 667.3 382.8C668.5 382.8 669.1 383.5 668.8 384.6C668.5 385.5 667.9 386.2 666.7 386.3Z" fill="#686766"/>
<path d="M672.4 514C672.6 514.1 672.8 514.3 673 514.4C672.9 514.4 672.7 514.4 672.7 514.3C672.6 514.2 672.5 514.1 672.4 514C672.4 514 672.5 514 672.4 514Z" fill="#686766"/>
<path d="M621.4 120.4C620.5 120.3 619.4 120.2 619.6 119C619.6 118.9 619.8 118.7 620 118.7C621.3 118.6 621.3 119.5 621.4 120.4C621.4 120.4 621.5 120.3 621.4 120.4Z" fill="#FAEFE0"/>
<path d="M648.1 206.3C648.2 206.4 648.2 206.6 648.3 206.7C648 206.7 647.8 206.8 647.5 206.8C647.5 206.6 647.5 206.4 647.6 206.3C647.7 206.3 648 206.3 648.1 206.3Z" fill="#686766"/>
<path d="M650.1 306.5C649.9 306.3 649.6 306 649.6 305.8C649.6 305.6 650 305.5 650.1 305.3C650.2 305.4 650.4 305.6 650.4 305.7C650.4 305.9 650.2 306.2 650.1 306.5Z" fill="#686766"/>
<path d="M649.9 308.7C650.4 309.1 650.8 309.5 650 309.9C649.9 310 649.4 309.6 649.1 309.4C649.4 309.1 649.7 308.9 649.9 308.7Z" fill="#686766"/>
<path d="M649.1 309.4C648.9 309.1 648.8 308.7 648.6 308.4C649 308.5 649.4 308.6 649.9 308.8C649.7 308.9 649.4 309.1 649.1 309.4Z" fill="#686766"/>
<path d="M700.1 76.2C696.5 75.6 696.9 72.9 696.2 70.8C699.6 71.5 699.5 74.1 700.1 76.2Z" fill="white"/>
<path d="M670.9 192.6C662.1 193.5 653.9 197.2 644.7 195.8C644.9 191.7 647.7 190.3 652 189.2C658.1 187.6 664.7 188.5 670.5 186C672.1 185.7 673.6 184.6 675.4 185.4C707.9 162.6 684.1 187.5 670.9 192.6Z" fill="white"/>
<path d="M676.6 368.5C676.6 368.5 711.8 519 663.9 532.4C618.1 545.2 653.4 482.9 653.4 482.9L676.6 368.5Z" fill="#686766"/>
<path d="M283.1 566.2C439.452 566.2 566.2 439.452 566.2 283.1C566.2 126.748 439.452 0 283.1 0C126.748 0 0 126.748 0 283.1C0 439.452 126.748 566.2 283.1 566.2Z" fill="#C0C0C0"/>
<path d="M18.3 295.1C18.3 390.3 65.3 474.5 137.3 525.8C55 476.2 0 386.1 0 283.1C0 126.7 126.7 0 283.1 0C344.3 0 400.9 19.4 447.2 52.4C404.6 26.7 354.7 12 301.3 12C145 12 18.3 138.7 18.3 295.1Z" fill="white"/>
<path d="M282.1 533C426.191 533 543 418.967 543 278.3C543 137.633 426.191 23.6001 282.1 23.6001C138.009 23.6001 21.2 137.633 21.2 278.3C21.2 418.967 138.009 533 282.1 533Z" fill="#B0B0B1"/>
<path d="M533.9 338.5C505.9 447.9 405.4 529.7 284.5 531.5C249.1 532 215.2 525.6 184.2 513.6C204.7 517.3 225.8 519 247.4 518.7C374.4 516.8 483.1 443.5 533.9 338.5Z" fill="#D6D7D4"/>
<path d="M470 138.3C469.5 137.7 470.3 137 470.8 137.4C508.6 169 516.8 233.3 515.1 287.1C514.7 300.4 513.4 329.9 507.6 347.1C507 348.8 504.5 348.2 504.7 346.5C506.9 325.8 506.2 283.7 506 277.3C504.2 220.3 502.4 176.3 470 138.3Z" fill="#C6C6C5"/>
<path d="M276.5 416.9C353.709 416.9 416.3 354.309 416.3 277.1C416.3 199.891 353.709 137.3 276.5 137.3C199.291 137.3 136.7 199.891 136.7 277.1C136.7 354.309 199.291 416.9 276.5 416.9Z" fill="#C7C6C5"/>
<path d="M148.1 281.8C148.1 337.9 181.1 386.3 228.8 408.6C175 389.1 136.6 337.6 136.6 277.1C136.6 199.9 199.2 137.3 276.4 137.3C297.5 137.3 317.5 142 335.5 150.4C320.6 145 304.6 142.1 287.9 142.1C210.7 142 148.1 204.6 148.1 281.8Z" fill="#A7A5A5"/>
<path d="M276.5 366.3C324.77 366.3 363.9 327.17 363.9 278.9C363.9 230.63 324.77 191.5 276.5 191.5C228.23 191.5 189.1 230.63 189.1 278.9C189.1 327.17 228.23 366.3 276.5 366.3Z" fill="#CECECE"/>
<path d="M247.3 217.7C247.3 217.7 260.1 221.2 276.5 219.9C292.8 218.5 302.1 214.2 302.1 214.2C302.1 214.2 309.4 208.5 312.4 207.1C315.4 205.7 331.1 184.6 330.9 179.9C330.7 175.2 333.9 158.9 333.9 157C333.9 155.1 335.2 139.3 330.7 132.2C326.3 125.2 247.3 217.7 247.3 217.7Z" fill="#CCB494"/>
<path d="M330.3 149.1C330.3 173.2 322.8 197.7 301.4 205.2C288.1 209.9 276.4 217.1 261.7 217.1C258.9 217.1 253.8 216.6 251 217.1C232 220.6 214 205.2 202.6 190.9C196.7 183.5 193.2 173.7 193 164.8C192.8 159 189.2 158.7 189.2 152.6C189.2 136.9 194.4 115.7 205.6 107.4C218.2 98.1 238.5 77.2 261.7 77.2C267.1 77.2 272.4 77.8 277.5 78.9C281.3 79.7 281.9 83 285.6 83.8C309.5 89.1 324 107.1 330 127.8C331.7 134.2 330.3 142.5 330.3 149.1Z" fill="#F7E7B5"/>
<path d="M250.3 145.9C252.8 144.7 254.2 141.9 253.8 139.1C253.3 135.8 252.3 131.5 250.5 130.2C247.5 128 244.2 120.4 238.8 115.5C233.3 110.6 245.9 103.8 246.6 107C247.3 110.3 252.2 126.4 254.4 124.6C256.6 122.8 256.3 114.4 260.1 113.8C263.9 113.3 275.4 124.5 275.4 128C275.4 131.6 264.2 139.2 264.5 141.4C264.8 143.6 265.6 152.3 275.4 155.3C285.2 158.3 278.1 180.2 271.3 179.9C264.5 179.6 263.3 152.6 257.1 150.4C250.9 148.2 243.9 164.3 242.8 166.5C241.7 168.7 227.4 173.9 224.1 147.5C220.8 121.1 238 148.2 244.6 147.5C246.8 147.3 248.8 146.6 250.3 145.9Z" fill="#D1922C"/>
<path d="M202.6 449.4C202.6 449.4 215.4 452.9 231.8 451.6C248.1 450.2 257.4 445.9 257.4 445.9C257.4 445.9 264.7 440.2 267.7 438.8C270.7 437.4 286.4 416.3 286.2 411.6C286 406.9 289.2 390.6 289.2 388.7C289.2 386.8 290.5 371 286 363.9C281.6 356.9 202.6 449.4 202.6 449.4Z" fill="#CCB494"/>
<path d="M285.6 380.8C285.6 404.9 278.1 429.4 256.7 436.9C243.4 441.6 231.7 448.8 217 448.8C214.2 448.8 209.1 448.3 206.3 448.8C187.3 452.3 169.3 436.9 157.9 422.6C152 415.2 148.5 405.4 148.3 396.5C148.1 390.7 144.5 390.4 144.5 384.3C144.5 368.6 149.7 347.4 160.9 339.1C173.5 329.8 193.8 308.9 217 308.9C222.4 308.9 227.7 309.5 232.8 310.6C236.6 311.4 237.2 314.7 240.9 315.5C264.8 320.8 279.3 338.8 285.3 359.5C287 365.9 285.6 374.2 285.6 380.8Z" fill="#F7E7B5"/>
<path d="M205.6 377.6C208.1 376.4 209.5 373.6 209.1 370.8C208.6 367.5 207.6 363.2 205.8 361.9C202.8 359.7 199.5 352.1 194.1 347.2C188.6 342.3 201.2 335.5 201.9 338.7C202.6 342 207.5 358.1 209.7 356.3C211.9 354.5 211.6 346.1 215.4 345.5C219.2 345 230.7 356.2 230.7 359.7C230.7 363.3 219.5 370.9 219.8 373.1C220.1 375.3 220.9 384 230.7 387C240.5 390 233.4 411.9 226.6 411.6C219.8 411.3 218.6 384.3 212.4 382.1C206.2 379.9 199.2 396 198.1 398.2C197 400.4 182.7 405.6 179.4 379.2C176.1 352.8 193.3 379.9 199.9 379.2C202.1 379 204.1 378.3 205.6 377.6Z" fill="#D1922C"/>
<path d="M385 278.7C385 278.7 397.8 282.2 414.2 280.9C430.5 279.5 439.8 275.2 439.8 275.2C439.8 275.2 447.1 269.5 450.1 268.1C453.1 266.7 468.8 245.6 468.6 240.9C468.4 236.2 471.6 219.9 471.6 218C471.6 216.1 472.9 200.3 468.4 193.2C464 186.2 385 278.7 385 278.7Z" fill="#CCB494"/>
<path d="M468 210.1C468 234.2 460.5 258.7 439.1 266.2C425.8 270.9 414.1 278.1 399.4 278.1C396.6 278.1 391.5 277.6 388.7 278.1C369.7 281.6 351.7 266.2 340.3 251.9C334.4 244.5 330.9 234.7 330.7 225.8C330.5 220 326.9 219.7 326.9 213.6C326.9 197.9 332.1 176.7 343.3 168.4C355.9 159.1 376.2 138.2 399.4 138.2C404.8 138.2 410.1 138.8 415.2 139.9C419 140.7 419.6 144 423.3 144.8C447.2 150.1 461.7 168.1 467.7 188.8C469.5 195.2 468 203.5 468 210.1Z" fill="#F7E7B5"/>
<path d="M388 206.9C390.5 205.7 391.9 202.9 391.5 200.1C391 196.8 390 192.5 388.2 191.2C385.2 189 381.9 181.4 376.5 176.5C371.1 171.6 383.6 164.8 384.3 168C385 171.3 389.9 187.4 392.1 185.6C394.3 183.8 394 175.4 397.8 174.8C401.6 174.3 413.1 185.5 413.1 189C413.1 192.5 401.9 200.2 402.2 202.4C402.5 204.6 403.3 213.3 413.1 216.3C422.9 219.3 415.8 241.2 409 240.9C402.2 240.6 401 213.6 394.8 211.4C388.6 209.2 381.6 225.3 380.5 227.5C379.4 229.7 365.1 234.9 361.8 208.5C358.5 182.1 375.7 209.2 382.3 208.5C384.6 208.3 386.5 207.6 388 206.9Z" fill="#D1922C"/>
<path d="M311.1 316C311.1 316 289.7 316.3 266.7 348.5C243.7 380.7 281.9 435.1 288.9 438.1C295.9 441.1 298.4 451.3 329.1 453.4C359.8 455.4 396.1 423.2 396.1 422.2C396.1 421.2 409.7 395.1 407.8 390.2C405.8 385.3 311.1 316 311.1 316Z" fill="#D0BB88"/>
<path d="M335.1 310.9C357.3 307.9 380.8 311.7 390.3 330C396.2 341.4 404.3 351 406 364.3C406.3 366.9 406.5 371.4 407.3 373.9C412.8 390.6 400.8 408.7 389 420.6C382.9 426.8 374.3 431.1 366.1 432.4C360.7 433.3 361 436.6 355.4 437.3C340.9 439.2 320.7 437.1 311.8 428.1C301.7 417.9 280.1 402.2 277.3 381.3C276.7 376.4 276.6 371.6 277 366.9C277.3 363.4 280.2 362.5 280.6 359C282.6 336.9 297.5 321.6 315.9 313.6C321.2 311.4 329 311.7 335.1 310.9Z" fill="#F7E7B5"/>
<path d="M346.1 375C348.6 374.4 350.4 372.2 350.6 369.6C350.8 366.5 350.9 362.4 349.6 360.9C347.4 358.3 346.2 350.7 342.4 345.1C338.6 339.5 351.2 336 351.1 339.1C351 342.2 351.8 357.8 354.2 356.7C356.5 355.6 358.1 347.9 361.6 348.2C365.1 348.5 372.8 361.1 372 364.3C371.2 367.5 359.7 372.1 359.5 374.1C359.3 376.1 358.1 384.2 366.1 389C374.1 393.8 363.1 412 357.2 410.4C351.2 408.7 356.1 384 351 380.7C346 377.4 336.4 390.4 334.9 392.2C333.5 393.9 319.7 395.6 322.5 371.1C325.3 346.6 334.6 374.7 340.6 375.4C342.7 375.5 344.6 375.3 346.1 375Z" fill="#D1922C"/>
<path d="M129.1 321.7C129.1 321.7 142.6 338.3 182.1 336.4C221.7 334.5 240.6 270.8 238.7 263.4C236.7 256.1 243.2 247.7 225.8 222.4C208.4 197.1 160.6 188.5 159.8 189.2C159 189.8 130.1 195.3 127.5 199.8C124.8 204.4 129.1 321.7 129.1 321.7Z" fill="#D0BB88"/>
<path d="M110.2 306C94.1 290.4 82.5 269.6 91 250.8C96.3 239.1 98.8 226.8 108.1 217.2C109.9 215.4 113.4 212.4 114.9 210.2C124.6 195.5 146.2 193.8 162.9 195.6C171.6 196.5 180.3 200.6 186.4 206.2C190.4 209.9 192.9 207.6 196.9 211.6C207.4 221.8 218.2 238.9 216.7 251.6C215 265.8 216 292.6 201.4 307.7C198 311.2 194.2 314.3 190.3 316.9C187.4 318.8 184.8 317.1 181.9 319C163.3 331.1 142.1 328.9 124.4 319.4C119.3 316.7 114.6 310.3 110.2 306Z" fill="#F7E7B5"/>
<path d="M153.7 257.7C151.7 256.1 148.8 256 146.6 257.5C144 259.2 140.8 261.7 140.4 263.7C139.7 267 134.5 272.7 132.4 279.1C130.3 285.5 119.8 277.8 122.3 276C124.8 274.2 136.5 263.8 134.2 262.7C131.9 261.6 124.8 265.1 122.9 262.2C121 259.3 126.1 245.4 129.1 244.1C132.1 242.7 142.8 249 144.6 247.9C146.3 246.8 153.4 242.7 152.2 233.5C151 224.3 172.1 221.6 174.5 227.3C176.9 233 154.5 244.6 155 250.5C155.5 256.4 171.7 256 174 256C176.2 256 186.1 265.8 165.1 278.8C144.1 291.8 160.4 267.1 157.3 261.9C156.2 260 154.9 258.7 153.7 257.7Z" fill="#D1922C"/>
<path d="M280 192.4C280 192.4 266.8 191 250.9 195.1C235 199.1 226.6 205 226.6 205C226.6 205 220.3 211.9 217.6 213.7C214.9 215.5 202.9 239 203.9 243.6C204.9 248.2 204.4 264.8 204.7 266.7C205 268.6 206.4 284.4 211.9 290.6C217.4 296.8 280 192.4 280 192.4Z" fill="#CCB494"/>
<path d="M209.5 273.7C205.5 249.9 208.8 224.5 228.7 213.5C241.1 206.7 251.4 197.6 265.9 195.2C268.7 194.7 273.8 194.4 276.5 193.4C294.7 186.8 315 199 328.6 211.2C335.7 217.5 340.7 226.6 342.4 235.4C343.5 241.1 347.2 240.7 348.2 246.8C350.8 262.3 349.1 284.1 339.5 294.1C328.7 305.4 312.1 329.3 289.1 333.2C283.8 334.1 278.4 334.4 273.2 334.1C269.3 333.9 268.2 330.8 264.4 330.6C240 329.4 222.7 314 213.3 294.5C210.6 288.7 210.6 280.3 209.5 273.7Z" fill="#F7E7B5"/>
<path d="M288.9 263.7C286.6 265.3 285.7 268.3 286.6 271C287.7 274.1 289.4 278.2 291.4 279.2C294.7 280.9 299.2 287.9 305.4 291.8C311.6 295.7 300.3 304.6 299.1 301.4C297.9 298.3 290.4 283.2 288.5 285.3C286.6 287.4 288.3 295.7 284.6 296.9C280.9 298.1 267.7 288.9 267.2 285.4C266.6 281.9 276.4 272.5 275.8 270.4C275.2 268.3 272.9 259.8 262.7 258.5C252.5 257.2 255.9 234.4 262.7 233.6C269.5 232.7 275.1 259.2 281.6 260.3C288.1 261.4 292.3 244.5 293 242C293.7 239.7 307 232.2 314.6 257.6C322.2 283 300.7 259.2 294.4 261C292.1 261.7 290.3 262.7 288.9 263.7Z" fill="#D1922C"/>
<path d="M487.5 285.8C487.5 285.8 495.8 266.1 475.4 232.1C455 198.1 389.9 211.5 384.4 216.7C378.9 221.9 368.5 220.2 354.3 247.5C340.1 274.8 355.3 321 356.2 321.4C357.1 321.8 375.6 344.7 380.9 344.9C386.2 345.1 487.5 285.8 487.5 285.8Z" fill="#D0BB88"/>
<path d="M482.6 309.9C476.4 331.5 463.7 351.5 443.1 352.9C430.3 353.8 418.2 357.3 405.4 353.7C402.9 353 398.7 351.3 396 351C378.5 349.3 366.7 331.1 360.4 315.6C357.1 307.5 356.6 297.9 358.7 289.9C360 284.6 356.9 283.5 358.5 278.1C362.5 264 372.5 246.4 384.3 241.8C397.6 236.6 420.7 223 441 228.8C445.7 230.2 450.2 232 454.3 234.3C457.4 236 457.1 239 460.1 240.7C479.6 251.4 487.7 271.1 487.6 291.1C487.7 296.9 484.3 304 482.6 309.9Z" fill="#F7E7B5"/>
<path d="M419.5 294.5C419 297 420.3 299.6 422.7 300.8C425.4 302.2 429.2 303.9 431.1 303.4C434.4 302.4 441.8 304.3 448.5 303.1C455.1 301.9 453.3 314.8 450.5 313.5C447.7 312.2 433.1 306.7 433.2 309.3C433.3 311.9 439.8 316.4 438.1 319.5C436.4 322.6 421.8 324.6 419.2 322.6C416.6 320.6 417 308.2 415.2 307.2C413.4 306.2 406.5 301.9 398.9 307.3C391.3 312.7 379 295.4 382.9 290.6C386.8 285.8 407.6 300.1 412.6 296.8C417.6 293.5 409.5 279.5 408.4 277.4C407.4 275.4 411.3 262.1 432.7 274.4C454.1 286.8 424.6 284.1 421.5 289.3C420.3 291.2 419.7 293 419.5 294.5Z" fill="#D1922C"/>
<path d="M158.7 212.1C157.6 199.8 167.6 188.6 177.5 187C185.1 185.8 192.5 190.3 195.8 192.2C201.2 195.4 201.6 197.5 205.4 199.4C214.5 203.8 222.1 193.4 228.4 197.2C231.7 199.1 233.7 204 232.4 207.1C231.7 208.8 229.4 211.1 204.6 212.9C194.5 213.6 190.9 213.5 189.5 216.1C186.8 221.1 197.6 229.2 195.1 233.4C193.1 236.8 183.8 235.5 177.6 233C174.7 231.9 159.9 226.1 158.7 212.1Z" fill="#BA7C39"/>
<path d="M222.6 318.8C225.5 311.2 248.9 316.4 251.6 308.6C253.5 303.2 243.3 297.4 244.9 294.1C248 288.1 286.4 297.8 286.5 307.8C286.6 313.9 272.5 316 272 325.1C271.6 331.3 277.9 333.5 277.5 340.8C277.2 345.8 273.9 351.2 269.3 353.3C259.3 357.9 245.7 345.9 236.4 337.6C229 331.1 220.7 323.8 222.6 318.8Z" fill="#BA7C39"/>
<path d="M346.3 291.6C340.1 276.9 344.7 259.4 354 248.3C357.2 244.5 362.6 238.1 371.2 236.3C380.7 234.3 385.3 239.7 395.3 237C401.8 235.3 401.5 232.5 409.8 228.1C422.4 221.4 438.5 219.5 440.6 223.6C442.1 226.5 436.7 232.3 432.8 235.5C427.7 239.6 421.9 241.5 397.9 244.8C382.8 246.8 382 246.5 379.7 248.1C372 253.6 370.6 264.6 368.6 283C366.6 300.5 368.1 307.6 364.5 309C359.9 310.9 350.5 301.5 346.3 291.6Z" fill="#BA7C39"/>
<path d="M340 152.5C341.3 151.3 346 157.5 352.5 157C355.3 156.8 357.4 155.4 360.5 153.3C365.5 149.9 368.3 146.3 369.1 145.3C377 135.7 402.1 131 413.1 142.1C416.1 145.1 420 151.2 417.9 154.6C413.5 162 387.1 146.9 367.8 156.2C366.9 156.6 362.4 158.9 356.1 159.7C353.3 160.1 344.1 161.2 340.8 156.4C339.9 155 339.3 153.1 340 152.5Z" fill="#BA7C39"/>
<path d="M150.5 359.9C153.2 359.8 152.1 347.6 160 343.7C161.9 342.8 164.2 342.4 168.7 341.8C173.5 341.1 176.7 341.1 178.1 341C185.8 340.6 199.5 332.8 199.8 320.5C200 310.7 191.6 300.8 180.8 300C172.7 299.3 164.3 303.9 161.4 310.4C158 318.2 164.3 324.8 160 330.2C156.6 334.6 151.2 331.8 147.4 336.1C141 343.1 147.4 360 150.5 359.9Z" fill="#BA7C39"/>
<path d="M249.7 420.1C251.5 415.7 262.3 420.6 270.7 413.3C278.1 406.8 274.3 399.1 280.8 393.2C291.9 383 316.1 394 317.7 394.7C326.2 398.7 343.6 409.6 341.3 420.1C339.6 427.7 328 433.5 318 432.8C302.6 431.7 296.4 415.7 288.3 418.3C280.4 420.9 283.6 437.3 275.4 440.6C265.6 444.4 247.1 426.4 249.7 420.1Z" fill="#BA7C39"/>
<path d="M270 416.2C264.3 415.6 263.7 398.8 257.9 398.4C253.9 398.1 251.8 406 249.3 405.5C244.7 404.5 244.4 376.7 251.2 374.9C255.3 373.8 259.2 382.9 265.5 381.7C269.7 380.8 270.2 376.2 275.2 375.2C278.6 374.5 282.9 375.8 285.2 378.5C290.1 384.4 284.4 395.8 280.4 403.6C277.3 409.7 273.8 416.6 270 416.2Z" fill="#F0C88B"/>
<path d="M229.8 228.5C220.9 235.3 208.2 235.3 199.1 231C195.9 229.5 190.6 227 187.9 221.5C184.9 215.4 187.7 211.3 184.1 205C181.8 200.9 180 201.6 175.5 196.7C168.7 189.4 164.6 178.7 167 176.6C168.7 175.1 173.6 177.7 176.4 179.8C180.1 182.5 182.4 186.1 188.9 201.8C193 211.7 192.9 212.3 194.4 213.5C199.5 217.7 207.2 216.7 220.1 214.8C232.3 213 236.9 210.8 238.5 212.9C240.5 215.8 235.8 223.9 229.8 228.5Z" fill="#F0C88B"/>
<path d="M198.3 324.2C197.2 323.5 200.6 319.3 199.1 314.9C198.5 313 197.2 311.9 195.2 310.2C192 307.4 189 306.2 188.2 305.8C180.3 302.1 172.6 285.9 178.2 276.5C179.7 273.9 183.2 270.2 185.8 271C191.6 272.7 186.1 293.3 195.8 304.7C196.2 305.2 198.6 307.9 200.2 312C201 313.9 203.4 319.9 200.7 323C200 323.8 198.8 324.5 198.3 324.2Z" fill="#F0C88B"/>
<path d="M393.3 286.9C392.8 285.1 384.7 288 380.6 283.4C379.6 282.3 379 280.8 377.7 277.9C376.4 274.8 375.8 272.6 375.5 271.7C373.8 266.6 335.2 263.4 326.8 265.5C320.1 267.1 335.1 275.8 336.4 283.2C337.4 288.8 352.7 287.7 357.7 288.5C363.6 289.4 367 284 371.4 285.9C375 287.4 374.1 291.6 377.6 293.4C383.6 296.3 393.9 289 393.3 286.9Z" fill="#F0C88B"/>
<path d="M346.3 178.9C343 178.4 344.4 170.3 337.9 165.9C332.2 162 327.7 166 322.5 162.7C313.6 157 316.7 138.6 317 137.4C318.2 130.9 322.5 117.2 330 116.9C335.4 116.7 341.4 123.5 342.7 130.4C344.7 141 334.9 148.1 338.2 153.1C341.4 158 351.9 152.9 355.6 157.9C360 163.8 351.1 179.5 346.3 178.9Z" fill="#F0C88B"/>
</g>
<defs>
<clipPath id="clip0">
<rect width="723.6" height="566.1" fill="white"/>
</clipPath>
</defs>
</svg>
