<svg width="567" height="567" viewBox="0 0 567 567" fill="none" xmlns="http://www.w3.org/2000/svg">
<g clip-path="url(#clip0)">
<path d="M283.1 566.2C439.452 566.2 566.2 439.452 566.2 283.1C566.2 126.748 439.452 0 283.1 0C126.748 0 0 126.748 0 283.1C0 439.452 126.748 566.2 283.1 566.2Z" fill="#C0C0C0"/>
<path d="M18.3 295.1C18.3 390.3 65.3 474.5 137.3 525.8C55 476.2 0 386.1 0 283.1C0 126.7 126.7 0 283.1 0C344.3 0 400.9 19.4 447.2 52.4C404.6 26.7 354.7 12 301.3 12C145 12 18.3 138.7 18.3 295.1Z" fill="white"/>
<path d="M282.1 533C426.191 533 543 418.967 543 278.3C543 137.633 426.191 23.6 282.1 23.6C138.009 23.6 21.2 137.633 21.2 278.3C21.2 418.967 138.009 533 282.1 533Z" fill="#B0B0B1"/>
<path d="M533.9 338.5C505.9 447.9 405.4 529.7 284.5 531.5C249.1 532 215.2 525.6 184.2 513.6C204.7 517.3 225.8 519 247.4 518.7C374.4 516.8 483.1 443.5 533.9 338.5Z" fill="#D6D7D4"/>
<path d="M470 138.3C469.5 137.7 470.3 137 470.8 137.4C508.6 169 516.8 233.3 515.1 287.1C514.7 300.4 513.4 329.9 507.6 347.1C507 348.8 504.5 348.2 504.7 346.5C506.9 325.8 506.2 283.7 506 277.3C504.2 220.3 502.4 176.3 470 138.3Z" fill="#C6C6C5"/>
<path d="M276.5 416.9C353.709 416.9 416.3 354.309 416.3 277.1C416.3 199.891 353.709 137.3 276.5 137.3C199.291 137.3 136.7 199.891 136.7 277.1C136.7 354.309 199.291 416.9 276.5 416.9Z" fill="#C7C6C5"/>
<path d="M148.1 281.8C148.1 337.9 181.1 386.3 228.8 408.6C175 389.1 136.6 337.6 136.6 277.1C136.6 199.9 199.2 137.3 276.4 137.3C297.5 137.3 317.5 142 335.5 150.4C320.6 145 304.6 142.1 287.9 142.1C210.7 142 148.1 204.6 148.1 281.8Z" fill="#A7A5A5"/>
<path d="M276.5 366.3C324.77 366.3 363.9 327.17 363.9 278.9C363.9 230.63 324.77 191.5 276.5 191.5C228.23 191.5 189.1 230.63 189.1 278.9C189.1 327.17 228.23 366.3 276.5 366.3Z" fill="#CECECE"/>
</g>
<defs>
<clipPath id="clip0">
<rect width="566.1" height="566.1" fill="white"/>
</clipPath>
</defs>
</svg>
