<svg width="692" height="567" viewBox="0 0 692 567" fill="none" xmlns="http://www.w3.org/2000/svg">
<g clip-path="url(#clip0)">
<path d="M283.1 566.2C439.452 566.2 566.2 439.452 566.2 283.1C566.2 126.748 439.452 0 283.1 0C126.748 0 0 126.748 0 283.1C0 439.452 126.748 566.2 283.1 566.2Z" fill="#C0C0C0"/>
<path d="M18.3 295.1C18.3 390.3 65.3 474.5 137.3 525.8C55 476.2 0 386.1 0 283.1C0 126.7 126.7 0 283.1 0C344.3 0 400.9 19.4 447.2 52.4C404.6 26.7 354.7 12 301.3 12C145 12 18.3 138.7 18.3 295.1Z" fill="white"/>
<path d="M282.1 533C426.191 533 543 418.967 543 278.3C543 137.633 426.191 23.6 282.1 23.6C138.009 23.6 21.2 137.633 21.2 278.3C21.2 418.967 138.009 533 282.1 533Z" fill="#B0B0B1"/>
<path d="M533.9 338.5C505.9 447.9 405.4 529.7 284.5 531.5C249.1 532 215.2 525.6 184.2 513.6C204.7 517.3 225.8 519 247.4 518.7C374.4 516.8 483.1 443.5 533.9 338.5Z" fill="#D6D7D4"/>
<path d="M470 138.3C469.5 137.7 470.3 137 470.8 137.4C508.6 169 516.8 233.3 515.1 287.1C514.7 300.4 513.4 329.9 507.6 347.1C507 348.8 504.5 348.2 504.7 346.5C506.9 325.8 506.2 283.7 506 277.3C504.2 220.3 502.4 176.3 470 138.3Z" fill="#C6C6C5"/>
<path d="M276.5 416.9C353.709 416.9 416.3 354.309 416.3 277.1C416.3 199.891 353.709 137.3 276.5 137.3C199.291 137.3 136.7 199.891 136.7 277.1C136.7 354.309 199.291 416.9 276.5 416.9Z" fill="#C7C6C5"/>
<path d="M148.1 281.8C148.1 337.9 181.1 386.3 228.8 408.6C175 389.1 136.6 337.6 136.6 277.1C136.6 199.9 199.2 137.3 276.4 137.3C297.5 137.3 317.5 142 335.5 150.4C320.6 145 304.6 142.1 287.9 142.1C210.7 142 148.1 204.6 148.1 281.8Z" fill="#A7A5A5"/>
<path d="M276.5 366.3C324.77 366.3 363.9 327.17 363.9 278.9C363.9 230.63 324.77 191.5 276.5 191.5C228.23 191.5 189.1 230.63 189.1 278.9C189.1 327.17 228.23 366.3 276.5 366.3Z" fill="#CECECE"/>
<path d="M247.3 217.7C247.3 217.7 260.1 221.2 276.5 219.9C292.8 218.5 302.1 214.2 302.1 214.2C302.1 214.2 309.4 208.5 312.4 207.1C315.4 205.7 331.1 184.6 330.9 179.9C330.7 175.2 333.9 158.9 333.9 157C333.9 155.1 335.2 139.3 330.7 132.2C326.3 125.2 247.3 217.7 247.3 217.7Z" fill="#CCB494"/>
<path d="M330.3 149.1C330.3 173.2 322.8 197.7 301.4 205.2C288.1 209.9 276.4 217.1 261.7 217.1C258.9 217.1 253.8 216.6 251 217.1C232 220.6 214 205.2 202.6 190.9C196.7 183.5 193.2 173.7 193 164.8C192.8 159 189.2 158.7 189.2 152.6C189.2 136.9 194.4 115.7 205.6 107.4C218.2 98.1 238.5 77.2 261.7 77.2C267.1 77.2 272.4 77.8 277.5 78.9C281.3 79.7 281.9 83 285.6 83.8C309.5 89.1 324 107.1 330 127.8C331.7 134.2 330.3 142.5 330.3 149.1Z" fill="#F7E7B5"/>
<path d="M250.3 145.9C252.8 144.7 254.2 141.9 253.8 139.1C253.3 135.8 252.3 131.5 250.5 130.2C247.5 128 244.2 120.4 238.8 115.5C233.3 110.6 245.9 103.8 246.6 107C247.3 110.3 252.2 126.4 254.4 124.6C256.6 122.8 256.3 114.4 260.1 113.8C263.9 113.3 275.4 124.5 275.4 128C275.4 131.6 264.2 139.2 264.5 141.4C264.8 143.6 265.6 152.3 275.4 155.3C285.2 158.3 278.1 180.2 271.3 179.9C264.5 179.6 263.3 152.6 257.1 150.4C250.9 148.2 243.9 164.3 242.8 166.5C241.7 168.7 227.4 173.9 224.1 147.5C220.8 121.1 238 148.2 244.6 147.5C246.8 147.3 248.8 146.6 250.3 145.9Z" fill="#D1922C"/>
<path d="M202.6 449.4C202.6 449.4 215.4 452.9 231.8 451.6C248.1 450.2 257.4 445.9 257.4 445.9C257.4 445.9 264.7 440.2 267.7 438.8C270.7 437.4 286.4 416.3 286.2 411.6C286 406.9 289.2 390.6 289.2 388.7C289.2 386.8 290.5 371 286 363.9C281.6 356.9 202.6 449.4 202.6 449.4Z" fill="#CCB494"/>
<path d="M285.6 380.8C285.6 404.9 278.1 429.4 256.7 436.9C243.4 441.6 231.7 448.8 217 448.8C214.2 448.8 209.1 448.3 206.3 448.8C187.3 452.3 169.3 436.9 157.9 422.6C152 415.2 148.5 405.4 148.3 396.5C148.1 390.7 144.5 390.4 144.5 384.3C144.5 368.6 149.7 347.4 160.9 339.1C173.5 329.8 193.8 308.9 217 308.9C222.4 308.9 227.7 309.5 232.8 310.6C236.6 311.4 237.2 314.7 240.9 315.5C264.8 320.8 279.3 338.8 285.3 359.5C287 365.9 285.6 374.2 285.6 380.8Z" fill="#F7E7B5"/>
<path d="M205.6 377.6C208.1 376.4 209.5 373.6 209.1 370.8C208.6 367.5 207.6 363.2 205.8 361.9C202.8 359.7 199.5 352.1 194.1 347.2C188.6 342.3 201.2 335.5 201.9 338.7C202.6 342 207.5 358.1 209.7 356.3C211.9 354.5 211.6 346.1 215.4 345.5C219.2 345 230.7 356.2 230.7 359.7C230.7 363.3 219.5 370.9 219.8 373.1C220.1 375.3 220.9 384 230.7 387C240.5 390 233.4 411.9 226.6 411.6C219.8 411.3 218.6 384.3 212.4 382.1C206.2 379.9 199.2 396 198.1 398.2C197 400.4 182.7 405.6 179.4 379.2C176.1 352.8 193.3 379.9 199.9 379.2C202.1 379 204.1 378.3 205.6 377.6Z" fill="#D1922C"/>
<path d="M385 278.7C385 278.7 397.8 282.2 414.2 280.9C430.5 279.5 439.8 275.2 439.8 275.2C439.8 275.2 447.1 269.5 450.1 268.1C453.1 266.7 468.8 245.6 468.6 240.9C468.4 236.2 471.6 219.9 471.6 218C471.6 216.1 472.9 200.3 468.4 193.2C464 186.2 385 278.7 385 278.7Z" fill="#CCB494"/>
<path d="M468 210.1C468 234.2 460.5 258.7 439.1 266.2C425.8 270.9 414.1 278.1 399.4 278.1C396.6 278.1 391.5 277.6 388.7 278.1C369.7 281.6 351.7 266.2 340.3 251.9C334.4 244.5 330.9 234.7 330.7 225.8C330.5 220 326.9 219.7 326.9 213.6C326.9 197.9 332.1 176.7 343.3 168.4C355.9 159.1 376.2 138.2 399.4 138.2C404.8 138.2 410.1 138.8 415.2 139.9C419 140.7 419.6 144 423.3 144.8C447.2 150.1 461.7 168.1 467.7 188.8C469.5 195.2 468 203.5 468 210.1Z" fill="#F7E7B5"/>
<path d="M388 206.9C390.5 205.7 391.9 202.9 391.5 200.1C391 196.8 390 192.5 388.2 191.2C385.2 189 381.9 181.4 376.5 176.5C371.1 171.6 383.6 164.8 384.3 168C385 171.3 389.9 187.4 392.1 185.6C394.3 183.8 394 175.4 397.8 174.8C401.6 174.3 413.1 185.5 413.1 189C413.1 192.5 401.9 200.2 402.2 202.4C402.5 204.6 403.3 213.3 413.1 216.3C422.9 219.3 415.8 241.2 409 240.9C402.2 240.6 401 213.6 394.8 211.4C388.6 209.2 381.6 225.3 380.5 227.5C379.4 229.7 365.1 234.9 361.8 208.5C358.5 182.1 375.7 209.2 382.3 208.5C384.6 208.3 386.5 207.6 388 206.9Z" fill="#D1922C"/>
<path d="M311.1 316C311.1 316 289.7 316.3 266.7 348.5C243.7 380.7 281.9 435.1 288.9 438.1C295.9 441.1 298.4 451.3 329.1 453.4C359.8 455.4 396.1 423.2 396.1 422.2C396.1 421.2 409.7 395.1 407.8 390.2C405.8 385.3 311.1 316 311.1 316Z" fill="#D0BB88"/>
<path d="M335.1 310.9C357.3 307.9 380.8 311.7 390.3 330C396.2 341.4 404.3 351 406 364.3C406.3 366.9 406.5 371.4 407.3 373.9C412.8 390.6 400.8 408.7 389 420.6C382.9 426.8 374.3 431.1 366.1 432.4C360.7 433.3 361 436.6 355.4 437.3C340.9 439.2 320.7 437.1 311.8 428.1C301.7 417.9 280.1 402.2 277.3 381.3C276.7 376.4 276.6 371.6 277 366.9C277.3 363.4 280.2 362.5 280.6 359C282.6 336.9 297.5 321.6 315.9 313.6C321.2 311.4 329 311.7 335.1 310.9Z" fill="#F7E7B5"/>
<path d="M346.1 375C348.6 374.4 350.4 372.2 350.6 369.6C350.8 366.5 350.9 362.4 349.6 360.9C347.4 358.3 346.2 350.7 342.4 345.1C338.6 339.5 351.2 336 351.1 339.1C351 342.2 351.8 357.8 354.2 356.7C356.5 355.6 358.1 347.9 361.6 348.2C365.1 348.5 372.8 361.1 372 364.3C371.2 367.5 359.7 372.1 359.5 374.1C359.3 376.1 358.1 384.2 366.1 389C374.1 393.8 363.1 412 357.2 410.4C351.2 408.7 356.1 384 351 380.7C346 377.4 336.4 390.4 334.9 392.2C333.5 393.9 319.7 395.6 322.5 371.1C325.3 346.6 334.6 374.7 340.6 375.4C342.7 375.5 344.6 375.3 346.1 375Z" fill="#D1922C"/>
<path d="M129.1 321.7C129.1 321.7 142.6 338.3 182.1 336.4C221.7 334.5 240.6 270.8 238.7 263.4C236.7 256.1 243.2 247.7 225.8 222.4C208.4 197.1 160.6 188.5 159.8 189.2C159 189.8 130.1 195.3 127.5 199.8C124.8 204.4 129.1 321.7 129.1 321.7Z" fill="#D0BB88"/>
<path d="M110.2 306C94.1 290.4 82.5 269.6 91 250.8C96.3 239.1 98.8 226.8 108.1 217.2C109.9 215.4 113.4 212.4 114.9 210.2C124.6 195.5 146.2 193.8 162.9 195.6C171.6 196.5 180.3 200.6 186.4 206.2C190.4 209.9 192.9 207.6 196.9 211.6C207.4 221.8 218.2 238.9 216.7 251.6C215 265.8 216 292.6 201.4 307.7C198 311.2 194.2 314.3 190.3 316.9C187.4 318.8 184.8 317.1 181.9 319C163.3 331.1 142.1 328.9 124.4 319.4C119.3 316.7 114.6 310.3 110.2 306Z" fill="#F7E7B5"/>
<path d="M153.7 257.7C151.7 256.1 148.8 256 146.6 257.5C144 259.2 140.8 261.7 140.4 263.7C139.7 267 134.5 272.7 132.4 279.1C130.3 285.5 119.8 277.8 122.3 276C124.8 274.2 136.5 263.8 134.2 262.7C131.9 261.6 124.8 265.1 122.9 262.2C121 259.3 126.1 245.4 129.1 244.1C132.1 242.7 142.8 249 144.6 247.9C146.3 246.8 153.4 242.7 152.2 233.5C151 224.3 172.1 221.6 174.5 227.3C176.9 233 154.5 244.6 155 250.5C155.5 256.4 171.7 256 174 256C176.2 256 186.1 265.8 165.1 278.8C144.1 291.8 160.4 267.1 157.3 261.9C156.2 260 154.9 258.7 153.7 257.7Z" fill="#D1922C"/>
<path d="M280 192.4C280 192.4 266.8 191 250.9 195.1C235 199.1 226.6 205 226.6 205C226.6 205 220.3 211.9 217.6 213.7C214.9 215.5 202.9 239 203.9 243.6C204.9 248.2 204.4 264.8 204.7 266.7C205 268.6 206.4 284.4 211.9 290.6C217.4 296.8 280 192.4 280 192.4Z" fill="#CCB494"/>
<path d="M209.5 273.7C205.5 249.9 208.8 224.5 228.7 213.5C241.1 206.7 251.4 197.6 265.9 195.2C268.7 194.7 273.8 194.4 276.5 193.4C294.7 186.8 315 199 328.6 211.2C335.7 217.5 340.7 226.6 342.4 235.4C343.5 241.1 347.2 240.7 348.2 246.8C350.8 262.3 349.1 284.1 339.5 294.1C328.7 305.4 312.1 329.3 289.1 333.2C283.8 334.1 278.4 334.4 273.2 334.1C269.3 333.9 268.2 330.8 264.4 330.6C240 329.4 222.7 314 213.3 294.5C210.6 288.7 210.6 280.3 209.5 273.7Z" fill="#F7E7B5"/>
<path d="M288.9 263.7C286.6 265.3 285.7 268.3 286.6 271C287.7 274.1 289.4 278.2 291.4 279.2C294.7 280.9 299.2 287.9 305.4 291.8C311.6 295.7 300.3 304.6 299.1 301.4C297.9 298.3 290.4 283.2 288.5 285.3C286.6 287.4 288.3 295.7 284.6 296.9C280.9 298.1 267.7 288.9 267.2 285.4C266.6 281.9 276.4 272.5 275.8 270.4C275.2 268.3 272.9 259.8 262.7 258.5C252.5 257.2 255.9 234.4 262.7 233.6C269.5 232.7 275.1 259.2 281.6 260.3C288.1 261.4 292.3 244.5 293 242C293.7 239.7 307 232.2 314.6 257.6C322.2 283 300.7 259.2 294.4 261C292.1 261.7 290.3 262.7 288.9 263.7Z" fill="#D1922C"/>
<path d="M487.5 285.8C487.5 285.8 495.8 266.1 475.4 232.1C455 198.1 389.9 211.5 384.4 216.7C378.9 221.9 368.5 220.2 354.3 247.5C340.2 274.8 355.3 321 356.2 321.4C357.1 321.8 375.6 344.7 380.9 344.9C386.1 345.1 487.5 285.8 487.5 285.8Z" fill="#D0BB88"/>
<path d="M482.6 309.9C476.4 331.5 463.7 351.5 443.1 352.9C430.3 353.8 418.2 357.3 405.4 353.7C402.9 353 398.7 351.3 396 351C378.5 349.3 366.7 331.1 360.4 315.6C357.1 307.5 356.6 297.9 358.7 289.9C360 284.6 356.9 283.5 358.5 278.1C362.5 264 372.5 246.4 384.3 241.8C397.6 236.6 420.7 223 441 228.8C445.7 230.2 450.2 232 454.3 234.3C457.4 236 457.1 239 460.1 240.7C479.6 251.4 487.7 271.1 487.6 291.1C487.7 296.9 484.3 304 482.6 309.9Z" fill="#F7E7B5"/>
<path d="M419.5 294.5C419 297 420.3 299.6 422.7 300.8C425.4 302.2 429.2 303.9 431.1 303.4C434.4 302.4 441.8 304.3 448.5 303.1C455.1 301.9 453.3 314.8 450.5 313.5C447.7 312.2 433.1 306.7 433.2 309.3C433.3 311.9 439.8 316.4 438.1 319.5C436.4 322.6 421.8 324.6 419.2 322.6C416.6 320.6 417 308.2 415.2 307.2C413.4 306.2 406.5 301.9 398.9 307.3C391.3 312.7 379 295.4 382.9 290.6C386.8 285.8 407.6 300.1 412.6 296.8C417.6 293.5 409.5 279.5 408.4 277.4C407.4 275.4 411.3 262.1 432.7 274.4C454.1 286.8 424.6 284.1 421.5 289.3C420.3 291.2 419.7 293 419.5 294.5Z" fill="#D1922C"/>
<path d="M655.7 205.7C668 201.1 676.6 192.7 681 180.2C681.5 178.9 681.5 177.4 683.2 177C683.7 182.3 680.6 186.4 678.5 190.9C674.3 199.7 669.4 204.7 662.8 212C657.8 217.5 652.4 219.4 648.7 231.6C646 230.2 648.1 228.2 648.1 226.4C648.1 224.8 648.4 223.1 648.6 221.5C648.8 217.9 650.4 214.9 652.4 212C652.5 209.3 655.3 208.2 655.7 205.7Z" fill="#686766"/>
<path d="M649.2 60.2999C649.8 60.3999 650.4 60.5999 651.1 60.6999C654.2 61.9999 657.3 63.2999 660.3 64.4999C660.6 66.5999 661.8 67.8999 663.9 68.2999C665.8 72.1999 669.1 74.8999 672 77.9999C672 78.1999 672.1 78.3999 672.3 78.4999C676.4 86.4999 681.2 94.0999 684.2 102.6C681 102.5 678.1 99.8999 674.6 101.6C673.5 102.1 672 100.8 671.2 99.6999C670.5 98.6999 669.7 97.7999 668.5 97.2999C653.7 89.9999 640.8 94.1999 628.8 103.9C627.5 104.9 626.1 106 626 107.9C625.9 109.2 625.9 110.5 627 111.3C628.4 112.3 629.2 111 630.1 110.2C631.6 108.9 633.1 107.6 634.5 106.2C640.5 100.1 649.4 99.0999 657 103.8C655.7 105.1 654.5 104 653.2 103.9C649.7 103.5 646.1 102.8 642.9 104.8C636.8 108.5 632 113.5 627.9 119.4C626 122.1 624.1 124.7 624.2 128.1C624.2 129.1 623.9 130.4 625.1 131C626.2 131.5 626.7 130.5 627.3 129.8C628.3 128.6 629.5 127.9 630.7 129.6C631.5 130.7 632.4 132.6 630.9 133.3C627.3 134.9 628.4 138.7 626.8 141.2C630 137.5 635.9 136.9 637.3 131.3C637.5 130.4 637.7 129.3 639 129.7C640.1 130 640 131.1 640.1 132C640.3 134.5 639.9 136.7 637.8 138.7C636.7 139.7 636.3 142.2 637.7 143.3C638.8 144.3 640.4 142.9 641 141.8C642.5 138.9 645.7 138.3 647.6 136.1C648.8 134.7 649.5 135.8 649.8 136.9C650.2 138.2 650 139.6 649.3 140.9C647.5 144.1 641.9 146.5 637.7 145.6C635.8 145.2 634.8 145.7 634.1 147.4C633.6 148.6 632.1 149.8 633.1 151.2C634.1 152.6 636 152.2 637.4 151.8C639.3 151.3 641 149.9 642.9 151.3C640.9 154 638.9 156.6 636.9 159.3C636.4 159.9 636.1 160.8 636.7 161.4C637.8 162.3 638.3 161.3 638.8 160.5C639.9 158.8 640.8 157.1 643 156.8C644.7 158.3 642.2 159.6 642.9 161C646.1 159.9 646.5 159.6 648.3 157.7C655.8 150 657.8 140.5 656.5 130.4C655.8 124.5 654.9 118.3 648.8 115C647.9 114.5 646.4 114.2 647 112.9C647.6 111.5 649.1 112 650.2 112.5C653.7 114.1 656.2 116.8 658 120.1C665.3 132.9 661.3 151.2 649 160.8C647.6 161.9 646 162.9 645.9 164.6C645.7 168 643.3 168.8 640.8 169.6C639.5 170.1 638.3 170.8 637.1 171.3C633.2 172.8 634.1 176.8 634.3 179C634.6 181.5 638.4 180.9 640.7 180.5C642.9 180.1 645.1 179.1 647.3 178.4C648.7 177.9 650.2 177.5 651.7 178.9C649.8 180.3 648.1 181.6 646.5 182.9C645.7 183.5 645.2 184.2 645.5 185.3C645.9 186.4 646.9 186.3 647.8 186.4C649.2 186.5 650.4 186.1 651.7 185.4C656.8 182.4 660.1 177.9 662.8 172.8C667.8 163.4 668.3 153.1 668.9 142.8C669.4 134.9 667.6 127.3 664.5 120C663.9 118.7 662.8 117.1 663.8 115.1C666.3 116.8 666.8 119.5 667.8 121.8C677.3 145.3 677.8 168.1 662.1 189.5C661.4 190.4 660.8 191.4 661.5 192.5C662.4 194.1 663.5 193.3 664.6 192.6C666.5 191.3 667 194.1 668.5 194.1C669.1 194.1 669.4 195.1 668.9 195.6C666.9 197.2 665 199.7 662.7 200C660.7 200.3 657.7 199.1 656.5 196.6C655.9 195.3 655.3 194.5 653.8 194.8C652.8 195 652.2 195.6 651.9 196.6C651.6 197.9 652.3 198.7 653.3 199.2C656.3 200.9 656.1 202.5 653.3 204.2C652.4 204.7 651.9 205.4 652.3 206.5C648 208.7 643.1 207.9 638.5 209.3C635.4 210.3 633.3 211.5 633.1 215C632.8 215 632.6 214.9 632.3 215C626.7 211 621 207 615.5 202.9C611.3 199.8 607.6 196.3 604.9 191.6C602.5 187.4 601.9 182.7 600.4 178.2C598.2 171.4 596.3 164.7 595.5 157.5C594.4 147 594.8 136.7 595.7 126.2C596.5 116.4 599.6 107.3 604.7 99.2999C607.9 94.2999 612.5 90.5999 615.3 84.6999C617.4 80.1999 619.8 74.2999 624.8 71.0999C625.2 70.8999 625.2 69.9999 625.4 69.3999V69.4999C626.2 69.4999 626.9 69.2999 627.2 68.4999C629.1 67.6999 630 66.1999 630.5 64.2999C631.5 64.0999 632.5 63.8999 633.6 63.6999C634.5 63.9999 634.1 62.4999 635.8 62.9999C636.3 62.8999 636.8 62.7999 637.3 62.6999C637.9 62.8999 638.3 62.5999 638.5 62.0999C639.9 61.2999 639.7 64.2999 641.6 62.9999C643.9 60.8999 646.5 60.8999 649.2 60.2999ZM615.7 149.8C617.9 149.6 617.8 147.9 617.5 146.6C616.6 142.5 617.2 138.3 616.5 134.2C615.9 130.4 613.9 126.8 612.2 122.3C610.3 126.6 612.7 129.7 612.1 132.9C611.9 133.7 612.4 135 611.2 135.2C609.8 135.5 609.5 134.2 609.3 133.2C607.9 127.7 606.8 122.2 608.6 116.4C610.5 110.2 611.1 103.4 616.5 98.7999C617.1 98.2999 617.6 97.0999 616.5 96.3999C615.7 95.8999 615.1 96.3999 614.5 96.9999C607.9 103 603.5 109.7 603.7 119.3C603.8 126.9 605.4 134.2 606.2 141.6C606.8 146.7 609.2 150.1 612.1 153.7C612.7 154.5 613.6 155.4 614.8 154.9C615.9 154.4 615.6 153.4 615.7 152.5C615.7 151.7 615.7 150.8 615.7 149.8ZM625.4 157.1C626.1 155.1 624.8 152.4 627.9 151.7C629.1 151.4 628.9 149.6 628.3 148.5C627.3 146.5 625.1 146.9 623.4 146.6C622 146.3 621.4 148.1 621.5 149.2C621.9 152 622.1 155.2 625.4 157.1ZM636.7 84.6999C639.9 85.0999 641.9 83.4999 643.8 81.7999C644.6 81.0999 644.8 79.7999 643.9 78.8999C643.1 78.1999 642.2 78.6999 641.5 79.3999C639.9 81.1999 638.4 82.7999 636.7 84.6999Z" fill="#CF8F3B"/>
<path d="M625.2 69.1C625 69.7 625 70.5 624.6 70.8C619.5 74 617.2 79.9 615.1 84.4C612.3 90.3 607.7 94 604.5 99C599.4 107 596.3 116.1 595.5 125.9C594.6 136.3 594.2 146.7 595.3 157.2C596.1 164.3 597.9 171.1 600.2 177.9C601.7 182.4 602.3 187.1 604.7 191.3C607.4 196 611.1 199.5 615.3 202.6C620.9 206.7 626.5 210.7 632.1 214.7C630.6 218.6 633.2 222.1 633.1 225.9C633.1 226.5 633.6 227.5 634 227.2C637.3 225 636.1 228.3 637 229.3C638.5 231.1 640.9 231.7 643.1 231.2C644.9 230.8 644.9 228.9 644.5 227.4C643.9 224.9 645.1 222.6 644.9 219.8C646.3 220.5 647.4 221 648.4 221.5C648.2 223.1 647.8 224.8 647.9 226.4C647.9 228.1 645.9 230.2 648.5 231.6C648.6 247.3 648.7 263.1 648.8 278.8C648.4 280.7 648.2 282.7 649 284.5C649.1 287.3 649.3 290 649.4 292.8C648.8 292.8 648.1 292.8 647.5 292.8C647.2 291.5 647 290.3 646.7 289C646.5 287.2 647.6 285.1 645.7 283.5C645.6 282.9 645.5 282.4 645.5 281.8C647.5 278.3 645.4 274.6 645.9 271C646 270.1 646.7 268.2 644.7 268.2C643 268.2 641.9 269.1 641.9 271.1C642 274.6 642.1 278.1 642.1 281.6C642 289.6 642.2 297.7 643.1 305.7C641.7 305.9 642.5 308.5 640.8 308C639.4 307.5 640.1 305.8 640 304.7C639.9 302.8 640 301 640 299.1C637.1 299.6 639.4 303.9 637 303C632.2 301.3 633.4 304.2 632.7 306.9C631.6 311.3 633.5 315.5 632.8 319.6C631.8 325.4 637.1 329.8 635.9 335.6C635.8 336 636.3 337.1 637.9 336.9C638.3 333.8 638.9 330.5 639.1 327.2C639.3 323.4 639 319.5 639.3 315.6C639.5 313.2 639.8 310.3 643.6 311.4C643.6 312.3 643.6 313.1 643.6 314C642 314.8 641.5 316.2 642 317.9C643.2 322 642.6 326.1 641.8 330.2C641.2 333.5 639.4 337.2 642.8 340.2C643.1 342.3 642.2 343.9 641.1 345.6C640 346.4 638.8 347.1 637.8 348.1C637 348.9 636.8 350.1 638 350.9C641.8 353.4 642 355 639.6 358.8C638.7 360.2 635.7 361.6 638.8 364C639.5 364.6 638.9 366 638.5 367C638 368.3 634.9 370.8 639.8 370.5C641.3 370.4 640.1 372.4 639.6 372.9C638.1 374.5 636.4 375.9 636.2 378.2C636.1 379.1 635.5 381.2 637.8 380.1C638.5 379.8 639.1 378.9 639.6 380C639.9 380.5 639.6 381.6 639.2 382.1C636.4 385.2 636.8 388.4 637.4 392.2C637.7 394.3 641.4 399.9 634.2 399.8C633 399.8 633.4 401.6 633.3 402.6C631.8 420.3 632.2 438.1 632.4 455.8C632.4 456.7 631.9 458 633.7 458.5C636.4 440 632.8 421.1 637.7 402.9C641.7 408.8 639.2 415.1 639.7 421.1C639.9 423.8 640.6 426.6 638.2 429.6C636.5 431.8 638.7 435.3 639.5 438.2C641.4 445.7 639.2 453.4 639.8 461.1C640 463.3 643 468 638.1 469.9C638.3 470.3 638.3 470.9 638.6 471.1C641.9 473.1 640.4 478.6 644.9 479.8C645 479.8 644.9 480.7 644.9 481.1C644.7 481.2 644.4 481.3 644.2 481.4C642.4 481.1 642.7 482.9 641.9 483.7C639.9 485.7 642.3 488.8 639.9 490.6C637.4 492.5 638.7 495.5 640.1 496.5C643.2 498.5 641.2 500.9 640.6 502.3C639.6 504.7 637.5 502.9 635.9 502.2C634.2 501.5 632.8 500.3 631.8 498.6C626 488.7 622.2 478.1 622.1 466.7C621.9 445.1 622 423.6 622.9 402C623.6 385.5 624.1 369 625 352.6C626.2 331.1 627.2 309.5 627.9 287.9C628.6 266.5 628.5 245 625.4 223.8C625.1 222.1 624.4 220.7 623.4 219.2C617.8 210.6 609.7 204.5 602.6 197.3C597.5 192 593.9 185.9 592.1 178.6C590.5 172 588.9 165.5 588.4 158.7C586.8 137.3 587.4 116.6 599.3 97.4C604.2 89.5 609.9 82.4 616.2 75.8C618.9 73 621.5 70.1 625.2 69.1ZM632.2 477.3C629.2 458.2 629.2 439 630.5 419.8C630.6 419.8 630.7 419.7 630.8 419.7C630.8 419.7 630.8 419.5 630.8 419.4C630.7 419.5 630.6 419.7 630.5 419.8C627.7 420.1 628.7 422.3 628.7 423.7C628.5 438.1 627.8 452.5 628.9 466.9C629.3 470.4 629.1 474.5 632.2 477.3C632.3 479.2 632.2 481.2 634.7 482.6C634.8 480.1 634 478.4 632.2 477.3ZM630.1 408.7C633.1 398.3 632.4 387.7 632.6 377.1C632.8 366.4 633.8 355.8 634.4 345.1C633.8 345.1 633.2 345.1 632.6 345C629.9 366.2 630.2 387.5 630.1 408.7ZM638.7 295.9C641.3 293.3 640.4 291.3 640.5 288.6C638 290.9 638.7 292.9 638.7 295.9Z" fill="#686766"/>
<path d="M652.1 206.2C651.7 205.1 652.2 204.4 653.1 203.9C655.9 202.2 656.1 200.6 653.1 198.9C652.1 198.3 651.4 197.6 651.7 196.3C651.9 195.3 652.6 194.7 653.6 194.5C655.1 194.2 655.6 195 656.3 196.3C657.5 198.8 660.5 200 662.5 199.7C664.7 199.4 666.7 196.9 668.7 195.3C669.2 194.9 668.9 193.8 668.3 193.8C666.8 193.8 666.3 191 664.4 192.3C663.3 193.1 662.3 193.8 661.3 192.2C660.6 191.1 661.2 190.2 661.9 189.2C677.6 167.8 677.1 145 667.6 121.5C666.7 119.2 666.2 116.5 663.6 114.8C662.6 116.8 663.7 118.3 664.3 119.7C667.4 127 669.2 134.6 668.7 142.5C668.1 152.7 667.7 163.1 662.6 172.5C659.9 177.6 656.5 182.1 651.5 185.1C650.2 185.9 649 186.2 647.6 186.1C646.7 186.1 645.7 186.1 645.3 185C645 184 645.5 183.2 646.3 182.6C648 181.3 649.6 180 651.5 178.6C649.9 177.2 648.5 177.7 647.1 178.1C644.9 178.8 642.8 179.8 640.5 180.2C638.2 180.6 634.4 181.2 634.1 178.7C633.8 176.5 633 172.4 636.9 171C638.2 170.5 639.4 169.8 640.6 169.3C643.1 168.4 645.5 167.7 645.7 164.3C645.8 162.6 647.4 161.6 648.8 160.5C661.1 150.9 665.1 132.6 657.8 119.8C655.9 116.5 653.5 113.8 650 112.2C648.9 111.7 647.4 111.1 646.8 112.6C646.2 113.9 647.7 114.2 648.6 114.7C654.7 118 655.6 124.3 656.3 130.1C657.5 140.3 655.6 149.8 648.1 157.4C646.2 159.3 645.9 159.6 642.7 160.7C642 159.3 644.6 158 642.8 156.5C640.7 156.8 639.7 158.6 638.6 160.2C638.1 160.9 637.6 162 636.5 161.1C635.8 160.5 636.2 159.7 636.7 159C638.7 156.3 640.7 153.7 642.7 151C640.8 149.6 639.1 151 637.2 151.5C635.8 151.9 633.9 152.3 632.9 150.9C631.9 149.5 633.4 148.4 633.9 147.1C634.6 145.4 635.6 144.9 637.5 145.3C641.7 146.2 647.3 143.8 649.1 140.6C649.9 139.3 650 137.9 649.6 136.6C649.3 135.5 648.6 134.4 647.4 135.8C645.5 138 642.2 138.6 640.8 141.5C640.2 142.6 638.6 144 637.5 143C636.2 141.8 636.5 139.4 637.6 138.4C639.7 136.5 640 134.3 639.9 131.7C639.8 130.8 639.9 129.7 638.8 129.4C637.5 129 637.3 130.1 637.1 131C635.7 136.6 629.8 137.2 626.6 140.9C628.2 138.3 627.1 134.5 630.7 133C632.2 132.4 631.3 130.5 630.5 129.3C629.4 127.7 628.1 128.3 627.1 129.5C626.5 130.2 626.1 131.2 624.9 130.7C623.7 130.1 624 128.8 624 127.8C623.9 124.3 625.8 121.8 627.7 119.1C631.8 113.2 636.6 108.2 642.7 104.5C645.9 102.5 649.5 103.2 653 103.6C654.3 103.8 655.5 104.8 656.8 103.5C649 98.7 639.7 99.9 633.7 106.6C632.6 107.8 631.3 108.8 630 109.8C629.1 110.5 628.3 112 626.8 110.9C625.7 110.1 625.7 108.8 625.8 107.5C625.9 105.6 627.3 104.5 628.6 103.5C640.6 93.9 653.5 89.7 668.3 96.9C669.5 97.5 670.3 98.3 671 99.3C671.9 100.5 673.3 101.8 674.4 101.2C677.9 99.5 680.8 102.1 684 102.2C684.2 103.7 685 104.8 686.6 105.1C691 117.8 691.7 131 691.3 144.4C691.3 144.9 690.8 145.4 690.5 145.9C688.8 145.1 687 144.8 686.9 147.3C686.8 149.4 686 152.3 689.8 152.3C690.9 159 687.9 164.8 685.5 170.7C684.7 172.6 683.5 174.4 683.1 176.5C681.4 176.9 681.4 178.4 680.9 179.7C676.7 191.5 668.9 200.8 657.7 205.5C656.8 205.9 655.5 209.1 654.8 206.1C654.7 205.7 653 206 652.1 206.2ZM630.6 123.9C630.3 124.1 629.4 123.5 629.6 124.5C629.9 124.3 630.3 124.1 630.6 123.9C632.4 123.4 634.3 122.5 635.9 124.6C638.1 127.3 641.6 126.5 644.4 127.5C645.3 127.8 646.5 126.8 645.9 125.9C643.9 122.8 645.2 119.7 645.3 116.6C645.4 115.3 644.5 114.9 643.4 114.5C638.7 112.7 631.8 117.7 630.6 123.9ZM674.4 112.7C677.4 115.2 678.9 118.6 679.8 122.4C680.3 124.7 681.5 127.5 679.5 128.9C675.3 131.7 677.7 133.7 679.6 136C680.8 137.4 682.1 138.5 682.7 140.4C683.1 141.7 684.7 142.5 686.1 142.1C687.4 141.7 686.8 140.3 686.8 139.3C686.9 135.9 686.9 132.5 684.8 129.6C684.1 128.6 684.1 127.7 684.3 126.6C685.4 119.5 680.6 109.4 674.7 105.8C672.8 104.6 671.7 104.5 671 106.9C668.9 106.4 667.9 104.5 666.4 103.3C664.7 101.9 663 100.4 659.6 101.8C666.8 106.1 669.7 113.4 675.3 119.1C675.9 116 673.6 114.6 674.4 112.7ZM678.5 141.1C677.1 143.7 678 145.7 678.9 147.9C680.6 152.2 681.3 156.7 681.4 161.4C681.4 162.6 681.7 163.9 683.1 164.3C683.8 164.5 684.2 163.8 684.3 163.2C685.2 158.3 687.2 153.1 684.4 148.5C682.7 146 679.7 144.2 678.5 141.1ZM661.9 107.6C661.3 106 661.2 104.5 659.3 104.7C659 104.7 658.6 105.5 658.6 105.6C659.2 106.8 659.7 108.1 661.9 107.6Z" fill="#F0C88B"/>
<path d="M637 62.4C636.5 62.5 636 62.6 635.5 62.7C634.7 62.6 633.9 62.7 633.3 63.4C632.3 63.6 631.3 63.8 630.2 64C627.4 63.8 625.2 65.1 622.9 66.4C616.3 70.5 610.8 75.8 605.8 81.6C598.4 90.4 592.2 99.8 589 111C583.7 129.8 583.3 148.9 586 168.2C588.4 185.5 597.2 198.8 610.2 209.5C615.6 213.9 619.2 218.8 621.1 225.4C624 235.2 625.1 245.4 625.2 255.5C625.6 278.2 624.4 300.8 623.5 323.5C623 336.4 622.3 349.4 621.6 362.3C620.4 381.8 620 401.4 619.5 421C619.2 433.7 619.5 446.4 619.2 459C618.9 467.3 619.7 475.4 622.3 483.2C624.4 489.4 625.8 495.9 629.8 501.3C634.5 507.8 642.4 509.3 646.5 501.8C646.8 501.3 647.4 501 647.9 500.6C650.7 501.3 651.2 502.8 650.7 505.7C650.1 510.1 648.8 514.2 646.2 517.6C638.7 527.4 631.6 525.2 626.1 516.1C620.9 507.5 618.9 497.7 618.2 487.6C617.4 476.5 615.9 465.5 616.7 454.4C618.1 435.1 616.8 415.8 617.8 396.6C618.5 382.6 618.7 368.6 619.8 354.6C620.9 339.7 621.2 324.8 621.8 309.8C622.5 293.4 622.7 277.1 622.7 260.8C622.7 256.4 622.9 251.7 621.5 247.5C619.5 241 615.8 235.1 610.6 230.7C602.2 223.4 594.4 215.7 590.2 205.2C587.3 198.1 585.9 190.6 585.1 182.9C584.1 172.7 582.6 162.6 581.8 152.5C580.8 141.4 582.3 130.5 584.7 119.5C588.4 102.6 596.3 88.1 608.3 76C615.9 68.3 624.2 60.9 635.7 59.6C640.2 59.1 644.9 58.3 649.2 60.5C646.5 61.1 643.5 60.6 641.3 62.8C639.8 64.3 639.6 61.1 638.2 61.9C637.8 61.9 637.4 62.1 637 62.4Z" fill="#D7D3D1"/>
<path d="M648 500.5C647.5 500.9 646.9 501.2 646.6 501.7C642.5 509.2 634.6 507.8 629.9 501.2C625.9 495.8 624.5 489.3 622.4 483.1C619.8 475.3 619 467.2 619.3 458.9C619.7 446.2 619.3 433.5 619.6 420.9C620.1 401.3 620.5 381.7 621.7 362.2C622.5 349.3 623.1 336.4 623.6 323.4C624.5 300.7 625.7 278.1 625.3 255.4C625.1 245.3 624 235.2 621.2 225.3C619.3 218.7 615.7 213.8 610.3 209.4C597.3 198.8 588.5 185.5 586.1 168.1C583.4 148.8 583.8 129.7 589.1 110.9C592.3 99.6999 598.5 90.2999 605.9 81.4999C610.9 75.5999 616.4 70.2999 623 66.2999C625.2 64.8999 627.5 63.6999 630.3 63.8999C629.9 65.7999 628.9 67.2999 627 68.0999C626.2 68.1999 625.5 68.3999 625.2 69.0999V68.9999C621.5 69.9999 618.9 72.9999 616.5 75.4999C610.2 82.0999 604.5 89.0999 599.6 97.0999C587.7 116.3 587 137 588.7 158.4C589.2 165.2 590.9 171.7 592.4 178.3C594.1 185.6 597.7 191.6 602.9 197C609.9 204.2 618.1 210.3 623.7 218.9C624.6 220.3 625.4 221.7 625.7 223.5C628.8 244.8 628.9 266.2 628.2 287.6C627.5 309.2 626.5 330.7 625.3 352.3C624.4 368.8 623.9 385.3 623.2 401.7C622.3 423.3 622.2 444.8 622.4 466.4C622.5 477.8 626.3 488.4 632.1 498.3C633.1 500 634.4 501.2 636.2 501.9C637.8 502.6 639.9 504.4 640.9 502C641.5 500.6 643.5 498.2 640.4 496.2C639 495.3 637.7 492.3 640.2 490.3C642.7 488.4 640.3 485.4 642.2 483.4C642.9 482.6 642.6 480.8 644.5 481.1C643.6 483.9 647.6 483.1 647.4 484.6C646.8 488.9 650.2 492.5 648.9 496.8C648.5 498 648.3 499.2 648 500.5Z" fill="#686766"/>
<path d="M643.2 305.7C642.3 297.7 642.1 289.7 642.2 281.6C643.3 281.6 644.4 281.7 645.5 281.7C645.6 282.3 645.7 282.8 645.7 283.4C644.8 285.4 643.6 287.6 646.7 288.9C647 290.2 647.2 291.4 647.5 292.7C645 292.9 645.8 294.8 645.7 296.2C645.3 302 647.5 307.5 648.5 313C649.2 317 647.8 321.7 651 325.2C651 326.4 650 327.4 650.4 328.7C651.6 332.6 651.5 337.5 650.9 340.7C649.9 345.6 652.1 347 654.6 349.3C654.6 349.8 654.6 350.4 654.7 350.9C651.3 354.2 652.1 360.3 656.3 363.2C658.7 367.5 658.6 372.3 659.1 377C659.4 379.9 658.8 382.8 659.8 385.7C660.2 387 660.2 388.5 659.1 389.6C658 390.7 657.6 391.5 658.5 393.1C659.4 394.6 659.7 396.4 657.4 397.7C655.7 398.7 657.2 400.9 656.9 402.6C656.8 403.1 658.2 403.9 657.4 404.5C654.3 406.8 655.8 407.8 658.7 408.1C657.8 410.1 656.4 410.2 655.1 410.6C653.6 411.1 652.5 411.8 652.9 409C653.3 406.1 651.3 403.4 651.7 400.4C650.5 400.4 649.9 400.8 649.8 401.4C649.6 408.4 649.2 415.5 649.5 422.5C649.7 428.2 649.5 433.8 650.1 439.6C651.1 449.1 650.9 458.7 651.3 468.2C651.4 469.7 651 471 649.5 471.6C648.2 470.8 648.6 469.5 648.4 468.3C647.4 464 646.7 459.6 647.9 455.4C649.7 449 645.6 443.2 646.5 437C646.8 434.9 644.8 432.6 646.9 430.5C647.5 429.9 647 429.5 646.4 429.1C642.1 426.7 643.5 422.8 644.7 419.8C646.1 416.4 645.5 413.2 645.6 409.9C645.8 405.4 642.5 401.6 643.2 397C643.5 394.9 643 393.1 640.4 392.5C638.8 392.1 638.7 390.7 639.1 389.1C640.1 385 643.2 382.1 645 378.4C646.4 375.5 647.6 371.7 645.1 369.7C640.9 366.3 640.1 363.5 643.7 359.3C646 356.7 645.4 354 642.2 352C643.6 350.8 645.9 349.8 646.1 348.5C646.6 344.7 643.4 345.3 640.9 345.2C642 343.6 642.9 341.9 642.6 339.8C644.9 339.2 647 338.7 644.2 335.9C643.3 335 643.1 333.6 643.4 332.4C644.7 326.1 644.4 319.9 643.4 313.7C643.4 312.8 643.4 312 643.4 311.1C643.7 309.5 644.6 307.5 643.2 305.7ZM651.8 391.6C652.8 390 655.6 389.6 656 387.5C656.3 386.1 654.4 386.5 653.5 386.6C651.5 386.9 650.2 388.2 650.2 390.3C650.1 391.1 650.4 391.9 651.8 391.6ZM649.2 378.6C650.1 378.5 650.5 377.9 650.7 377.2C650.9 376.3 650.5 375.6 649.6 375.7C648.7 375.7 648.4 376.5 648.4 377.3C648.3 377.8 648.3 378.5 649.2 378.6Z" fill="#686766"/>
<path d="M641.2 345.4C643.6 345.5 646.8 344.8 646.4 348.7C646.2 350 643.9 351 642.5 352.2C645.8 354.3 646.3 356.9 644 359.5C640.3 363.8 641.2 366.5 645.4 369.9C647.9 371.9 646.7 375.7 645.3 378.6C643.5 382.3 640.5 385.2 639.4 389.3C639 390.9 639.1 392.3 640.7 392.7C643.3 393.3 643.8 395.1 643.5 397.2C642.8 401.8 646.1 405.6 645.9 410.1C645.8 413.4 646.4 416.6 645 420C643.8 422.9 642.4 426.9 646.7 429.3C647.3 429.6 647.8 430.1 647.2 430.7C645.1 432.8 647.1 435.1 646.8 437.2C645.9 443.5 650 449.3 648.2 455.6C647 459.8 647.8 464.3 648.7 468.5C649 469.7 648.5 471 649.8 471.8C649.5 475.3 648.1 478.3 646.3 481.2C645.8 481.1 645.4 481 644.9 480.9C644.9 480.4 645 479.6 644.9 479.6C640.4 478.5 641.9 472.9 638.6 470.9C638.3 470.7 638.2 470.1 638.1 469.7C643 467.8 639.9 463.1 639.8 460.9C639.2 453.2 641.4 445.5 639.5 438C638.8 435 636.5 431.5 638.2 429.4C640.6 426.5 639.9 423.7 639.7 420.9C639.2 414.9 641.7 408.6 637.7 402.7C632.8 420.9 636.3 439.8 633.7 458.3C631.9 457.8 632.4 456.5 632.4 455.6C632.3 437.9 631.8 420.1 633.3 402.4C633.4 401.4 633 399.6 634.2 399.6C641.4 399.8 637.7 394.1 637.4 392C636.8 388.2 636.3 384.9 639.2 381.9C639.6 381.4 639.9 380.3 639.6 379.8C639.1 378.8 638.5 379.6 637.8 379.9C635.4 381 636.1 378.9 636.2 378C636.4 375.7 638.1 374.3 639.6 372.7C640.2 372.1 641.3 370.2 639.8 370.3C634.9 370.6 638 368.1 638.5 366.8C638.9 365.7 639.5 364.3 638.8 363.8C635.8 361.4 638.7 360 639.6 358.6C642 354.8 641.8 353.3 638 350.7C636.8 349.9 637.1 348.7 637.8 347.9C638.9 347 640.1 346.3 641.2 345.4Z" fill="#686766"/>
<path d="M656.4 457.9C654.6 456.3 653.7 454.6 655.7 452.4C658.2 449.7 659.3 446.7 658.3 442.8C657.6 440 658.1 437 658.2 434.1C658.3 432.9 657.5 430.4 659.2 430.8C660.6 431.1 663.8 430.6 663.7 434C663.6 441.5 664 449 663.4 456.4C663.1 460.1 664 463.9 662.9 467.7C662.3 469.7 661.5 470.8 660 471.7C659.5 471.2 658.4 464.6 659 463.6C661.4 460.1 658.9 459 656.4 457.9Z" fill="#686766"/>
<path d="M645 480.9C645.5 481 645.9 481.1 646.4 481.2C647.3 483.8 650.1 482.2 651.5 483.6C651.9 485.3 650.2 487.9 653.4 488.5C653.4 488.6 653.5 488.7 653.5 488.8C653.5 488.9 653.7 488.8 653.7 488.9C653.6 488.8 653.4 488.7 653.3 488.6C653.3 486.6 653.2 484.7 654.3 482.9C656.5 481.6 656 478.9 657 477C657.6 476.2 658.2 475.4 658.9 474.6C662.5 480.2 661.7 484 655.7 487.3C659.6 487.7 661.3 488.3 657.3 491.4C654.5 493.5 652.8 497.1 648.6 496.9C649.9 492.7 646.5 489 647.1 484.7C647.3 483.2 643.3 484.1 644.2 481.2C644.6 481.1 644.8 481 645 480.9Z" fill="#686766"/>
<path d="M651.2 325.2C647.9 321.7 649.4 317 648.7 313C647.7 307.4 645.5 302 645.9 296.2C646 294.8 645.2 292.9 647.7 292.7C648.3 292.7 649 292.7 649.6 292.7C651.5 299.6 651.2 306.8 651.7 313.9C651.5 315.2 650.9 316.6 652.3 317.8C652.5 319.9 652.7 322 652.9 324.1C652.3 324.5 651.7 324.8 651.2 325.2Z" fill="#686766"/>
<path d="M654.8 349.4C652.2 347.1 650.1 345.7 651.1 340.8C651.8 337.5 651.9 332.7 650.6 328.8C650.2 327.4 651.2 326.5 651.2 325.3C651.8 325.4 652.3 325.4 652.9 325.5C654.5 333.3 653.4 341.4 654.8 349.4Z" fill="#686766"/>
<path d="M659 474.5C658.4 475.3 657.8 476.1 657.1 476.9C656.5 476.4 655.9 476 655.3 475.5C655 475.2 654.8 474.8 654.5 474.5C653.2 468.7 656.8 463.5 656.4 457.9C658.9 459 661.4 460.1 659 463.6C658.3 464.6 659.4 471.2 660 471.7C660 472.4 660 473 660 473.7C659.7 474 659.3 474.3 659 474.5Z" fill="#686766"/>
<path d="M686.8 105.5C685.2 105.2 684.5 104.1 684.2 102.6C681.2 94.1 676.4 86.4 672.3 78.5C674.2 78.5 674.7 80.1 675.6 81.3C680.9 88.7 684.5 96.8 686.8 105.5Z" fill="#D7D3D1"/>
<path d="M656.5 363.2C652.3 360.4 651.5 354.2 654.9 350.9C656 355 656.8 359 656.5 363.2Z" fill="#686766"/>
<path d="M672 77.9999C669.2 74.8999 665.9 72.1999 663.9 68.2999C668 70.3999 671.5 72.8999 672 77.9999Z" fill="#D7D3D1"/>
<path d="M689.9 152.8C686.2 152.8 686.9 149.9 687 147.8C687.1 145.3 688.9 145.6 690.6 146.4C690.3 148.5 690.1 150.6 689.9 152.8Z" fill="#CF8F3B"/>
<path d="M660.3 64.4999C657.2 63.1999 654.1 61.8999 651.1 60.6999C655.4 58.9999 658.1 61.0999 660.3 64.4999Z" fill="#D7D3D1"/>
<path d="M653.5 488.4C650.3 487.7 652.1 485.2 651.6 483.5C652.5 483.3 653.5 483 654.4 482.8C653.3 484.5 653.4 486.5 653.5 488.4Z" fill="#686766"/>
<path d="M649.1 284.5C648.3 282.6 648.5 280.7 648.9 278.8Z" fill="#686766"/>
<path d="M663.9 68.4C661.8 68 660.6 66.7 660.3 64.6C662.5 64.9 663.7 66.1 663.9 68.4Z" fill="#D7D3D1"/>
<path d="M660 473.7C660 473 660 472.4 660 471.7C660.7 471.8 661.6 471.9 661.4 472.9C661.3 473.3 660.5 473.4 660 473.7Z" fill="#686766"/>
<path d="M652.9 325.4C652.3 325.3 651.8 325.3 651.2 325.2C651.8 324.8 652.3 324.5 652.9 324.1C652.9 324.5 652.9 324.9 652.9 325.4Z" fill="#686766"/>
<path d="M654.5 474.5C654.8 474.8 655 475.2 655.3 475.5C655 475.2 654.7 474.8 654.5 474.5Z" fill="#686766"/>
<path d="M615.7 149.8C615.7 150.7 615.7 151.7 615.7 152.6C615.7 153.5 615.9 154.6 614.8 155C613.6 155.5 612.7 154.7 612.1 153.8C609.3 150.2 606.8 146.7 606.2 141.7C605.3 134.3 603.8 127 603.7 119.4C603.5 109.9 608 103.1 614.5 97.1C615.1 96.6 615.7 96 616.5 96.5C617.6 97.2 617.1 98.4 616.5 98.9C611.1 103.6 610.5 110.3 608.6 116.5C606.8 122.3 607.9 127.7 609.3 133.3C609.6 134.3 609.8 135.6 611.2 135.3C612.4 135.1 611.9 133.8 612.1 133C612.7 129.8 610.3 126.7 612.2 122.4C613.9 126.9 615.9 130.5 616.5 134.3C617.2 138.3 616.6 142.6 617.5 146.7C617.8 147.9 617.9 149.6 615.7 149.8C615.6 149.1 615.6 148.3 614.6 148.3C614.5 148.3 614.3 148.5 614.3 148.6C614.2 149.7 615 149.7 615.7 149.8Z" fill="#F0C88B"/>
<path d="M652.4 212C650.4 214.9 648.8 217.9 648.6 221.5C647.6 221 646.5 220.5 645.1 219.8C645.3 222.6 644.1 224.9 644.7 227.4C645.1 229 645.1 230.8 643.3 231.2C641.1 231.7 638.7 231.1 637.2 229.3C636.3 228.3 637.4 224.9 634.2 227.2C633.8 227.5 633.3 226.6 633.3 225.9C633.4 222.1 630.8 218.6 632.3 214.7C632.6 214.7 632.8 214.7 633.1 214.7C639.7 215.9 645.9 212.7 652.4 212ZM635.5 223.7C635.4 223.7 635.2 223.7 635.2 223.8C635.1 223.9 635.1 224.1 635.1 224.2C635.3 224.2 635.5 224.1 635.7 224.1C635.6 224 635.5 223.9 635.5 223.7Z" fill="#686766"/>
<path d="M625.4 157.1C622.1 155.1 621.9 152 621.6 149.1C621.5 148 622.1 146.2 623.5 146.5C625.2 146.8 627.3 146.5 628.4 148.4C629 149.6 629.2 151.4 628 151.6C624.8 152.5 626 155.1 625.4 157.1Z" fill="#F0C88B"/>
<path d="M636.7 84.7C638.5 82.8 640 81.1 641.5 79.5C642.2 78.8 643.1 78.3 643.9 79C644.9 79.8 644.7 81.1 643.8 81.9C641.9 83.5 639.8 85.1 636.7 84.7Z" fill="#F0C88B"/>
<path d="M633.4 63.3C634 62.6 634.7 62.5 635.6 62.6C635 63.5 634.2 63.6 633.4 63.3Z" fill="#A09B98"/>
<path d="M625.2 69.1C625.6 68.3 626.3 68.1 627 68.1C626.7 68.9 626 69.2 625.2 69.1Z" fill="#686766"/>
<path d="M637 62.3999C637.4 62.1999 637.8 61.9999 638.2 61.7999C638 62.2999 637.6 62.4999 637 62.3999Z" fill="#A09B98"/>
<path d="M643.2 305.7C644.6 307.5 643.7 309.5 643.7 311.3C639.9 310.2 639.6 313.1 639.4 315.5C639.1 319.3 639.4 323.2 639.2 327.1C639 330.4 638.4 333.7 638 336.8C636.4 337 635.9 335.9 636 335.5C637.2 329.7 631.9 325.4 632.9 319.5C633.6 315.4 631.7 311.2 632.8 306.8C633.5 304.1 632.3 301.2 637.1 302.9C639.5 303.8 637.3 299.5 640.1 299C640.1 300.9 640 302.8 640.1 304.6C640.2 305.8 639.5 307.4 640.9 307.9C642.6 308.6 641.8 305.9 643.2 305.7ZM636.2 312.4C636.4 312.6 636.8 312.9 636.9 312.8C637.4 312.4 637.2 312.1 636.8 311.8C636.5 311.7 636.2 311.6 635.9 311.5C636 311.8 636.1 312.1 636.2 312.4ZM636.9 309.9C637 309.6 637.1 309.4 637.2 309.2C637.2 309.1 637.1 309 637 308.9C636.9 309 636.6 309.2 636.6 309.3C636.6 309.6 636.8 309.7 636.9 309.9Z" fill="#686766"/>
<path d="M630.1 408.7C630.2 387.5 630 366.2 632.6 345.1C633.2 345.1 633.8 345.1 634.4 345.2C633.8 355.9 632.8 366.5 632.6 377.2C632.3 387.8 633.1 398.4 630.1 408.7Z" fill="#686766"/>
<path d="M632.3 477.2C629.2 474.4 629.3 470.3 629 466.8C627.9 452.4 628.7 438 628.8 423.6C628.8 422.2 627.8 419.9 630.6 419.7C629.3 439 629.2 458.2 632.3 477.2Z" fill="#686766"/>
<path d="M643.7 314C644.7 320.2 645 326.5 643.7 332.7C643.4 333.9 643.7 335.4 644.5 336.2C647.3 339 645.2 339.5 642.9 340.1C639.4 337.1 641.3 333.5 641.9 330.1C642.7 326 643.3 321.9 642.1 317.8C641.6 316.2 642.1 314.8 643.7 314Z" fill="#686766"/>
<path d="M645.5 281.8C644.4 281.8 643.3 281.7 642.2 281.7C642.1 278.2 642.1 274.7 642 271.2C641.9 269.2 643.1 268.3 644.8 268.3C646.8 268.3 646.2 270.2 646 271.1C645.4 274.6 647.5 278.3 645.5 281.8Z" fill="#686766"/>
<path d="M638.7 295.9C638.7 292.9 638 290.8 640.5 288.6C640.4 291.3 641.3 293.4 638.7 295.9Z" fill="#686766"/>
<path d="M632.2 477.3C634 478.5 634.7 480.1 634.7 482.6C632.3 481.2 632.3 479.2 632.2 477.3C632.2 477.3 632.3 477.2 632.2 477.3Z" fill="#686766"/>
<path d="M646.8 288.9C643.6 287.6 644.9 285.5 645.8 283.4C647.7 285 646.5 287.1 646.8 288.9Z" fill="#686766"/>
<path d="M630.6 419.8C630.7 419.7 630.8 419.5 630.9 419.4C630.9 419.5 630.9 419.6 630.9 419.7C630.8 419.7 630.7 419.7 630.6 419.8C630.6 419.8 630.6 419.7 630.6 419.8Z" fill="#A09B98"/>
<path d="M671 106.7C671.6 104.3 672.7 104.4 674.7 105.6C680.7 109.3 685.4 119.3 684.3 126.4C684.1 127.5 684.1 128.5 684.8 129.4C686.9 132.3 686.9 135.7 686.8 139.1C686.8 140.1 687.3 141.6 686.1 141.9C684.7 142.3 683.2 141.4 682.7 140.2C682.1 138.3 680.7 137.2 679.6 135.8C677.7 133.5 675.3 131.5 679.5 128.7C681.5 127.3 680.4 124.5 679.8 122.2C678.9 118.4 677.4 115.1 674.4 112.5C674.3 112.2 674.2 111.9 674.2 111.7C673.7 109.8 673.8 107.6 671.3 107C671.2 107 671.1 106.9 671 106.7Z" fill="#CF8F3B"/>
<path d="M630.6 123.9C631.8 117.7 638.6 112.7 643.4 114.6C644.5 115 645.4 115.4 645.3 116.7C645.2 119.8 643.9 122.9 645.9 126C646.5 126.8 645.3 127.9 644.4 127.6C641.6 126.5 638.1 127.4 635.9 124.7C634.3 122.5 632.5 123.3 630.6 123.9Z" fill="#CF8F3B"/>
<path d="M678.5 141.1C679.8 144.3 682.8 146 684.3 148.5C687.1 153 685.1 158.3 684.2 163.2C684.1 163.7 683.7 164.5 683 164.3C681.6 163.9 681.3 162.5 681.3 161.4C681.3 156.8 680.5 152.2 678.8 147.9C678 145.7 677 143.7 678.5 141.1Z" fill="#CF8F3B"/>
<path d="M674.1 111.8C674.2 112.1 674.2 112.4 674.3 112.6C673.5 114.6 675.8 115.9 675.2 118.8C669.6 113.1 666.7 105.8 659.5 101.5C663 100.1 664.6 101.6 666.3 103C667.8 104.2 668.8 106.2 670.9 106.6C671 106.7 671.1 106.9 671.2 107C671.7 109 671.4 111.4 674.1 111.8Z" fill="#CF8F3B"/>
<path d="M661.9 107.6C659.7 108.1 659.2 106.7 658.6 105.6C658.5 105.4 659 104.7 659.3 104.7C661.1 104.5 661.3 106 661.9 107.6Z" fill="#CF8F3B"/>
<path d="M630.6 123.8C630.3 124 630 124.2 629.7 124.4C629.4 123.5 630.3 124.1 630.6 123.8C630.6 123.8 630.6 123.9 630.6 123.8Z" fill="#CF8F3B"/>
<path d="M651.8 391.6C650.4 391.9 650.1 391.1 650.2 390.3C650.3 388.2 651.5 386.9 653.5 386.6C654.4 386.4 656.3 386.1 656 387.5C655.5 389.6 652.8 390 651.8 391.6Z" fill="#686766"/>
<path d="M649.2 378.6C648.3 378.5 648.4 377.9 648.4 377.3C648.4 376.5 648.7 375.7 649.6 375.7C650.5 375.7 650.9 376.3 650.7 377.2C650.5 377.9 650.1 378.5 649.2 378.6Z" fill="#686766"/>
<path d="M653.4 488.5C653.5 488.6 653.7 488.7 653.8 488.8C653.7 488.8 653.6 488.8 653.6 488.7C653.5 488.7 653.5 488.5 653.4 488.5C653.4 488.5 653.5 488.4 653.4 488.5Z" fill="#686766"/>
<path d="M615.7 149.8C615 149.7 614.2 149.6 614.3 148.6C614.3 148.5 614.5 148.3 614.6 148.3C615.6 148.3 615.6 149.1 615.7 149.8C615.7 149.8 615.8 149.8 615.7 149.8Z" fill="#CF8F3B"/>
<path d="M635.5 223.7C635.6 223.8 635.6 224 635.7 224.1C635.5 224.1 635.3 224.2 635.1 224.2C635.1 224.1 635.1 223.9 635.2 223.8C635.2 223.7 635.4 223.7 635.5 223.7Z" fill="#686766"/>
<path d="M636.9 309.9C636.8 309.7 636.6 309.5 636.5 309.3C636.5 309.2 636.8 309 636.9 308.9C637 309 637.1 309.1 637.1 309.2C637.1 309.5 637 309.7 636.9 309.9Z" fill="#686766"/>
<path d="M636.8 311.8C637.2 312.1 637.5 312.5 636.9 312.8C636.8 312.9 636.4 312.5 636.2 312.4C636.4 312.2 636.6 312 636.8 311.8Z" fill="#686766"/>
<path d="M636.2 312.4C636.1 312.1 636 311.8 635.9 311.5C636.2 311.6 636.5 311.7 636.8 311.8C636.6 312 636.4 312.2 636.2 312.4Z" fill="#686766"/>
<path d="M674.1 111.8C671.4 111.3 671.7 109 671.2 107.1C673.7 107.8 673.6 110 674.1 111.8Z" fill="#F0C88B"/>
<path d="M652.4 212C645.9 212.7 639.7 215.9 633 214.7C633.1 211.2 635.3 210 638.4 209C642.9 207.6 647.8 208.4 652.2 206.2C653.4 206 654.5 205 655.8 205.7C679.9 186.1 662.2 207.6 652.4 212Z" fill="#CF8F3B"/>
<path d="M656.6 359.5C656.6 359.5 680 488.9 648 500.5C617.4 511.6 641.1 457.9 641.1 457.9L656.6 359.5Z" fill="#686766"/>
</g>
<defs>
<clipPath id="clip0">
<rect width="691.5" height="566.1" fill="white"/>
</clipPath>
</defs>
</svg>
