<svg width="346" height="333" viewBox="0 0 346 333" fill="none" xmlns="http://www.w3.org/2000/svg">
<path d="M119.824 13.9135C119.824 13.9135 70.3877 14.4883 16.9276 89.2175C-36.5325 163.947 52.2803 290.124 68.3758 297.022C84.4713 303.92 90.5071 327.776 161.787 332.375C233.067 337.261 317.282 262.244 317.282 259.945C317.282 257.646 348.898 197 344.299 185.791C339.7 174.581 119.824 13.9135 119.824 13.9135Z" fill="#D0BB88"/>
<path d="M175.583 2.12929C227.032 -4.76879 281.641 3.85381 303.485 46.392C317.281 72.8346 335.964 95.2534 339.988 125.72C340.85 131.756 341.137 142.39 342.862 148.139C355.508 186.94 327.629 228.904 300.324 256.496C285.953 270.867 266.121 280.927 247.151 284.088C234.792 286.1 235.367 293.861 222.146 295.585C188.517 300.184 141.668 295.01 120.974 274.316C97.4052 250.748 47.3941 214.245 40.7834 165.671C39.3463 154.462 39.0589 143.253 40.2086 132.331C41.0709 124.283 47.6815 121.983 48.5438 114.223C53.1425 62.7749 87.6329 27.4223 130.458 9.02737C143.392 3.27897 161.5 4.14123 175.583 2.12929Z" fill="#F7E7B5"/>
<path d="M201.164 150.726C206.912 149.289 211.224 144.115 211.798 138.079C212.373 130.894 212.373 121.409 209.499 117.96C204.325 111.924 201.451 94.3915 192.829 81.1702C184.206 67.9488 213.235 59.9011 212.948 67.374C212.661 74.5595 214.673 110.774 220.134 108.188C225.595 105.601 229.044 87.7808 237.379 88.3557C245.427 89.2179 263.247 118.247 261.522 125.72C259.798 133.193 233.067 143.828 232.493 148.426C231.918 153.025 229.331 171.995 247.726 182.917C266.408 194.126 240.828 236.377 227.032 232.353C213.236 228.329 224.445 171.133 212.661 163.66C200.876 155.899 178.745 186.366 175.296 190.39C172.134 194.414 139.943 198.438 146.554 141.528C153.165 84.6192 174.721 149.864 188.517 151.588C193.404 151.875 197.715 151.588 201.164 150.726Z" fill="#D1922C"/>
</svg>
